<?xml version="1.0" encoding="utf-8"?>
<!-- Generator: Adobe Illustrator 19.1.0, SVG Export Plug-In . SVG Version: 6.00 Build 0)  -->
<svg version="1.1" id="Layer_1" xmlns="http://www.w3.org/2000/svg" xmlns:xlink="http://www.w3.org/1999/xlink" x="0px" y="0px"
	 viewBox="0 0 1400 980" enable-background="new 0 0 1400 980" xml:space="preserve">
<g>
	<g>
		<path fill="#FFFFFF" d="M182.9,267c0,0-50.3-58-34-113.7c11.8-40.3,34.1-51,49.1-44.7c33.8,14.3,40.3,73.8,40.3,73.8"/>
		<path fill="#605951" d="M182.9,269.5c-0.7,0-1.4-0.3-1.9-0.9c-0.5-0.6-12.9-15-23.5-36.5c-14.1-28.6-17.9-56.2-11-79.5
			c6.7-22.9,17.7-39,31-45.3c7.2-3.4,14.8-3.7,21.5-0.9c14.5,6.1,26.3,21.3,34.2,43.8c5.9,16.7,7.6,31.5,7.6,32.1
			c0.2,1.4-0.8,2.6-2.2,2.8c-1.4,0.2-2.6-0.8-2.8-2.2c-0.1-0.6-6.8-58.2-38.8-71.8c-5.4-2.3-11.4-2-17.4,0.8
			c-12,5.7-22.1,20.7-28.4,42.2c-15.7,53.8,33,110.8,33.5,111.3c0.9,1,0.8,2.6-0.2,3.5C184.1,269.3,183.5,269.5,182.9,269.5z"/>
	</g>
	<g>
		<path fill="#FFFFFF" d="M383,267c0,0,50.3-58,34-113.7c-11.8-40.3-34.1-51-49.1-44.7c-33.8,14.3-44.6,75.3-44.6,75.3"/>
		<path fill="#605951" d="M383,269.5c-0.6,0-1.2-0.2-1.6-0.6c-1-0.9-1.2-2.5-0.3-3.5c0.5-0.6,49.2-57.6,33.5-111.4
			c-6.3-21.5-16.4-36.5-28.4-42.2c-6-2.8-12-3.1-17.4-0.8c-32.1,13.6-43,72.8-43.1,73.4c-0.2,1.4-1.5,2.3-2.9,2
			c-1.4-0.2-2.3-1.5-2-2.9c0.1-0.6,2.8-15.7,9.8-32.8c9.4-23.2,21.7-38.2,36.3-44.4c6.6-2.8,14.3-2.5,21.5,0.9
			c13.3,6.3,24.3,22.4,31,45.3c6.8,23.4,3,50.9-11,79.5c-10.6,21.5-22.9,35.9-23.5,36.5C384.4,269.2,383.7,269.5,383,269.5z"/>
	</g>
	<g>
		<path fill="#F7BEAF" d="M216.9,204.3c0,0-15.8-13.8-16.2-46.3c-0.3-32.5-11.2-30.1-19.3-27.3c-7.1,2.5-27.7,23.3-20.7,65.8
			s25.9,59.8,25.9,59.8"/>
		<path fill="#605951" d="M186.6,258.8c-0.6,0-1.2-0.2-1.7-0.7c-0.8-0.7-19.6-18.4-26.7-61.3c-3.9-23.6,0.7-39.9,5.3-49.4
			c5.2-10.9,12.5-17.6,17.1-19.2c3.2-1.1,9.3-3.2,14.3,0.3c5.5,3.9,8.2,13.2,8.3,29.3c0.3,31,15.1,44.3,15.3,44.5
			c1,0.9,1.1,2.5,0.2,3.5c-0.9,1-2.5,1.1-3.5,0.2c-0.7-0.6-16.7-14.9-17-48.2c-0.2-17.4-3.5-23.4-6.2-25.3c-2.4-1.7-5.6-1.2-9.8,0.3
			c-6.1,2.1-25.7,22.4-19,63.1c6.8,41.2,24.9,58.2,25.1,58.4c1,0.9,1.1,2.5,0.2,3.5C188,258.5,187.3,258.8,186.6,258.8z"/>
	</g>
	<g>
		<path fill="#F7BEAF" d="M346.6,207.7c0,0,18.2-17.3,18.5-49.8c0.3-32.5,11.2-30.1,19.3-27.3c7.1,2.5,27.7,23.3,20.7,65.8
			s-28.5,61.6-28.5,61.6"/>
		<path fill="#605951" d="M376.6,260.6c-0.7,0-1.4-0.3-1.9-0.8c-0.9-1-0.8-2.6,0.2-3.5c0.2-0.2,21-19.1,27.7-60.1
			c6.7-40.6-12.9-60.9-19-63.1c-4.2-1.5-7.4-2-9.8-0.3c-2.7,1.9-6,7.9-6.2,25.3c-0.3,33.2-18.5,50.8-19.3,51.6c-1,1-2.6,0.9-3.5-0.1
			c-0.9-1-0.9-2.6,0.1-3.5l0,0c0,0,4.4-4.3,8.8-12.3c4-7.4,8.8-19.5,9-35.7c0.2-16.1,2.8-25.4,8.3-29.3c5-3.5,11.1-1.5,14.3-0.3
			c4.6,1.6,11.9,8.3,17.1,19.2c4.5,9.5,9.1,25.9,5.3,49.4c-7.1,42.9-28.5,62.3-29.4,63.1C377.8,260.4,377.2,260.6,376.6,260.6z"/>
	</g>
	<path fill="#605951" d="M189.6,227.2c-0.5,0-1-0.2-1.5-0.5c-1-0.7-1.3-2-0.8-3.1l8.9-19.6l-17.4-3.4c-1.1-0.2-1.9-1.1-2-2.2
		c-0.1-1.1,0.5-2.1,1.5-2.6l15.1-6.2c-6.5-8.4-7.8-15.7-7.9-16c-0.2-0.9,0.2-1.9,1-2.4c0.8-0.6,1.8-0.7,2.6-0.2l15.2,7.4
		c1.2,0.6,1.8,2.1,1.2,3.3s-2.1,1.8-3.3,1.2l-9.9-4.8c1.3,3,3.5,6.9,7.1,11c0.5,0.6,0.7,1.4,0.6,2.2s-0.7,1.4-1.5,1.7l-10.6,4.3
		l12.3,2.4c0.8,0.1,1.4,0.6,1.7,1.3c0.4,0.7,0.4,1.5,0.1,2.2l-5.6,12.3c3.5-2.7,7.4-5.2,10.1-5.5c1.4-0.2,2.6,0.7,2.8,2.1
		c0.2,1.4-0.7,2.6-2.1,2.8c-3,0.4-11.2,7-16,11.6C190.8,227,190.2,227.2,189.6,227.2z"/>
	<path fill="#605951" d="M376.3,227.2c-0.6,0-1.2-0.2-1.7-0.7c-4.8-4.5-13-11.1-16-11.6c-1.4-0.2-2.3-1.5-2.1-2.8
		c0.2-1.4,1.5-2.3,2.8-2.1c2.7,0.4,6.5,2.9,10.1,5.5l-5.6-12.3c-0.3-0.7-0.3-1.5,0.1-2.2c0.4-0.7,1-1.2,1.7-1.3l12.3-2.4l-10.6-4.3
		c-0.8-0.3-1.3-1-1.5-1.7s0-1.6,0.6-2.2c3.6-4,5.8-8,7.1-11l-9.9,4.8c-1.2,0.6-2.7,0.1-3.3-1.2c-0.6-1.2-0.1-2.7,1.2-3.3l15.2-7.4
		c0.8-0.4,1.8-0.3,2.6,0.2c0.8,0.6,1.1,1.5,1,2.4c-0.1,0.3-1.4,7.7-7.9,16l15.1,6.2c1,0.4,1.6,1.5,1.5,2.6c-0.1,1.1-0.9,2-2,2.2
		l-17.4,3.4l8.9,19.6c0.5,1.1,0.2,2.4-0.8,3.1C377.3,227.1,376.8,227.2,376.3,227.2z"/>
	<g>
		<path fill="#FFFFFF" d="M216.9,400.5c0,0-76.3,7.7-106.7-16.7l11.9-4.6c0,0-45.3-30.1-48.5-47.2l10.5-2c0,0-18.4-26.7-13.9-65.7
			l10.2,5.5c0,0-10.3-33.7,10-57.7l3.6,8.6c0,0,5.3-19.3,28.9-33.1c0,0,13.4,29,9.9,43.7l11.5-2.2c0,0-12.6,29.9-12.5,53.6l9.7-3.2
			c0,0-3.3,29,3.1,39.7l7.9-2.5c0,0-1.5,1.8,19.8,25.1S216.9,400.5,216.9,400.5z"/>
		<path fill="#605951" d="M189.7,404.1c-4.7,0-9.7-0.1-14.9-0.4c-30.9-1.5-53.2-7.6-66.2-18c-0.7-0.6-1-1.4-0.9-2.3
			c0.1-0.9,0.7-1.6,1.6-1.9l7.5-2.9c-11.3-7.9-42.8-31.1-45.6-46.1c-0.3-1.4,0.6-2.7,2-2.9l6.9-1.4c-4.8-8.3-16.1-32.1-12.4-64.3
			c0.1-0.8,0.6-1.5,1.3-1.9c0.7-0.4,1.6-0.4,2.3,0l5.3,2.9c-2.1-10.9-4.3-35.4,11.8-54.5c0.6-0.7,1.4-1,2.3-0.9
			c0.9,0.1,1.6,0.7,1.9,1.5l1.3,3c3.4-7.1,11.3-19.2,27.7-28.7c0.6-0.4,1.3-0.4,2-0.2c0.7,0.2,1.2,0.7,1.5,1.3
			c0.5,1.1,11.8,25.8,10.6,41.6l8.1-1.5c0.9-0.2,1.8,0.2,2.4,0.9c0.6,0.7,0.7,1.7,0.4,2.5c-0.1,0.3-11.2,26.9-12.3,49.2l6.3-2.1
			c0.8-0.3,1.7-0.1,2.4,0.4c0.7,0.5,1,1.4,0.9,2.2c-0.8,7.3-2,27.2,1.9,36.4l5.8-1.8c1.1-0.3,2.2,0.1,2.8,1c0.3,0.4,0.4,0.9,0.4,1.3
			c0.4,1,3,5.8,19.2,23.5c21.2,23.2,44.7,58.7,44.9,59c0.5,0.7,0.5,1.7,0.2,2.5c-0.4,0.8-1.1,1.3-2,1.4
			C217,403,205.4,404.1,189.7,404.1z M115.3,384.4c26.9,17.4,81.5,15,97.1,13.9c-6.5-9.5-25.1-36.3-42.1-54.9
			c-12.2-13.4-17.4-20.1-19.4-23.7l-5.7,1.8c-1.1,0.3-2.3-0.1-2.9-1.1c-5.3-9-4.4-28.9-3.7-37.4l-6,2c-0.8,0.3-1.6,0.1-2.2-0.3
			c-0.7-0.5-1-1.2-1-2c-0.1-18.9,7.6-41.2,11-50.4l-7.1,1.3c-0.8,0.2-1.7-0.1-2.3-0.7c-0.6-0.6-0.8-1.5-0.6-2.3
			c2.7-11.2-5.5-32.2-8.6-39.5c-20.3,12.9-25.3,30-25.3,30.1c-0.3,1-1.2,1.8-2.2,1.8c-1.1,0.1-2-0.5-2.5-1.5l-2-4.6
			c-15.7,22.4-7.1,51.8-7,52.1c0.3,1,0,2-0.8,2.7c-0.8,0.6-1.9,0.7-2.8,0.3l-6.9-3.7c-2.8,35.7,13.7,60.1,13.9,60.3
			c0.5,0.7,0.6,1.6,0.3,2.4c-0.3,0.8-1,1.3-1.8,1.5l-7.8,1.5c5.5,13.5,35.1,35.4,46.7,43.2c0.8,0.5,1.2,1.4,1.1,2.4
			s-0.7,1.7-1.6,2.1L115.3,384.4z"/>
	</g>
	<g>
		<path fill="#FFFFFF" d="M390.4,421.7c-14.4-8.7-34.6-11.6-46.1-12.6c25.2-9.7,42.4-27.4,46.4-55.8c8.7-61-21.5-128.1-63.8-166.3
			c-24.7-22.3-67.8-22.3-92.4,0c-18.1,16.4-36.6,36.3-50.8,77.7c-20.9,61-18.2,125.9,35.8,146c-10.9,1.7-23.9,5-34,11.1
			c-21.3,12.8,12.1,16.8,36.7,5.5c10.1-4.6,17.6-8.3,22.9-10.9c30,3.5,58.3,3.3,81.9-2c5.3,2.7,13.9,6.9,26.8,12.9
			C378.4,438.5,411.7,434.5,390.4,421.7z"/>
		<path fill="#605951" d="M192.3,436.4c-7.8,0-13.8-1.7-15.6-5.1c-1.9-3.7,0.6-7.6,7.4-11.7c7.1-4.3,16-7.6,26.8-9.9
			c-50.1-24.7-48.6-90.5-29.6-145.8c14.7-43,34.3-63.2,51.5-78.7c25.5-23.1,70.3-23.1,95.8,0c21.5,19.5,39.9,46.3,51.6,75.6
			c12.6,31.4,17.1,63.6,12.9,93c-3.5,24.6-16.7,42.8-39.4,54c11.4,1.6,26.4,5,37.9,11.9c6.9,4.1,9.3,8.1,7.4,11.7
			c-4,7.5-28.3,6.5-46.5-1.8c-12.6-5.8-21-9.9-26.1-12.5c-22.3,4.9-49.5,5.5-81.1,1.9c-6.4,3.2-13.9,6.7-22.3,10.6
			C213.3,434,201.6,436.4,192.3,436.4z M280.8,172.7c-16.3,0-32.7,5.4-44.5,16.1c-16.7,15.1-35.8,34.8-50.2,76.6
			c-19.1,55.7-20.2,122.5,34.3,142.8c1.1,0.4,1.7,1.5,1.6,2.6c-0.1,1.1-1,2-2.1,2.2c-13.8,2.2-24.9,5.8-33.1,10.8
			c-5.1,3.1-5.7,4.9-5.6,5.1c1.7,3.2,21.5,4.4,40-4.1c8.7-4,16.3-7.6,22.8-10.9c0.4-0.2,0.9-0.3,1.4-0.2c31.7,3.7,59,3,81.1-1.9
			c0.6-0.1,1.2-0.1,1.7,0.2c4.9,2.5,13.5,6.8,26.7,12.8c18.5,8.5,38.3,7.2,40,4.1c0.1-0.2-0.4-2-5.6-5.1l0,0
			c-14.1-8.5-34.3-11.3-45.1-12.2c-1.2-0.1-2.1-1-2.3-2.1c-0.2-1.2,0.5-2.3,1.6-2.7c26.1-10.1,41.2-28.2,44.9-53.8
			c4.1-28.5-0.3-59.8-12.6-90.4c-11.5-28.6-29.4-54.7-50.3-73.7C313.4,178.1,297.1,172.7,280.8,172.7z"/>
	</g>
	<circle fill="#605951" cx="245" cy="229.4" r="14.2"/>
	<circle fill="#FFFFFF" cx="245" cy="225.1" r="8.8"/>
	<circle fill="#FFFFFF" cx="234.5" cy="236.7" r="3.8"/>
	<circle fill="#FFFFFF" cx="247.7" cy="238.9" r="2"/>
	<circle fill="#605951" cx="312.7" cy="229.4" r="14.2"/>
	<circle fill="#FFFFFF" cx="312.7" cy="225.1" r="8.8"/>
	<circle fill="#FFFFFF" cx="302.3" cy="236.7" r="3.8"/>
	<circle fill="#FFFFFF" cx="315.5" cy="238.9" r="2"/>
	<path fill="#605951" d="M265.4,267c-0.2,0-0.4,0-0.6,0c-8-0.4-13-9-13.2-9.4c-0.7-1.2-0.3-2.7,0.9-3.4c1.2-0.7,2.7-0.3,3.4,0.9
		c0.1,0.1,3.9,6.7,9.2,6.9c3.3,0.1,6.7-2.2,10.1-7.1c0.8-1.1,2.4-1.4,3.5-0.6c1.1,0.8,1.4,2.4,0.6,3.5
		C274.9,263.9,270.3,267,265.4,267z"/>
	<path fill="#605951" d="M289.1,267c-4.9,0-9.6-3.1-13.9-9.2c-0.8-1.1-0.5-2.7,0.6-3.5c1.1-0.8,2.7-0.5,3.5,0.6
		c3.4,4.9,6.8,7.2,10.1,7.1c5.2-0.3,9.1-6.8,9.1-6.9c0.7-1.2,2.2-1.6,3.4-0.9c1.2,0.7,1.6,2.2,0.9,3.4c-0.2,0.4-5.2,9-13.2,9.4
		C289.5,267,289.3,267,289.1,267z"/>
	<path fill="#605951" d="M352.5,286.3c-0.5,0-1.1-0.2-1.5-0.5c-1.1-0.8-1.3-2.4-0.4-3.5c17.4-22.4,0.7-46.9-0.1-47.9
		c-0.8-1.1-0.5-2.7,0.6-3.5c1.1-0.8,2.7-0.5,3.5,0.6c0.2,0.3,19.6,28.5-0.1,53.8C354,285.9,353.3,286.3,352.5,286.3z"/>
	<path fill="#605951" d="M211.1,286.3c-0.7,0-1.5-0.3-2-1c-19.7-25.4-0.3-53.6-0.1-53.8c0.8-1.1,2.4-1.4,3.5-0.6
		c1.1,0.8,1.4,2.4,0.6,3.5l0,0c-0.7,1-17.5,25.5-0.1,47.9c0.8,1.1,0.6,2.7-0.4,3.5C212.2,286.1,211.7,286.3,211.1,286.3z"/>
	<path fill="#605951" d="M191.2,294.5c0,0,0.2,0.8,0.2,1.9c0,1.1-0.2,2.6-0.5,4c-0.3,1.4-0.8,2.8-1.3,3.8c-0.4,1-0.9,1.7-0.9,1.7
		s-0.2-0.8-0.2-1.9c-0.1-1.1,0.1-2.6,0.4-4.1c0.3-1.4,0.8-2.8,1.3-3.8C190.7,295.1,191.2,294.5,191.2,294.5z"/>
	<path fill="#605951" d="M209.2,368c0,0,0.1,0.2,0.2,0.6c0.1,0.4,0.2,0.9,0.4,1.6c0.3,1.3,0.9,2.9,1.4,4.6c0.5,1.7,1.1,3.4,1.3,4.8
		c0.3,1.4,0.2,2.3,0.2,2.3s-0.6-0.7-1.3-1.9c-0.7-1.2-1.6-2.8-2.1-4.6c-0.3-0.9-0.5-1.8-0.6-2.7c-0.1-0.9-0.1-1.7,0-2.4
		c0-0.4,0.1-0.7,0.2-1c0.1-0.3,0.1-0.5,0.2-0.7C209.1,368.2,209.2,368,209.2,368z"/>
	<path fill="#605951" d="M239.7,339.5c0,0,0.4,0.4,0.6,1.2c0.3,0.8,0.4,1.8,0.2,2.9c-0.2,1-0.7,2-1.3,2.6c-0.5,0.6-1.1,0.8-1.1,0.8
		s0-0.2,0-0.4c0-0.2,0-0.6,0.1-0.9c0-0.7,0.2-1.6,0.3-2.5c0.2-0.9,0.4-1.8,0.6-2.5c0.1-0.4,0.2-0.6,0.3-0.9
		C239.6,339.6,239.7,339.5,239.7,339.5z"/>
	<path fill="#605951" d="M293.7,358.5c0,0,0.4,0.9,0.6,2.2c0.3,1.3,0.4,3.2,0.2,5c-0.1,0.9-0.3,1.8-0.5,2.7
		c-0.2,0.8-0.5,1.6-0.9,2.2c-0.3,0.6-0.7,1.1-1,1.4c-0.3,0.3-0.5,0.5-0.5,0.5s0-0.2,0.1-0.6c0.1-0.4,0.1-0.9,0.2-1.6
		c0.1-0.3,0.1-0.7,0.1-1c0-0.4,0.1-0.8,0.1-1.2c0.1-0.8,0.2-1.7,0.3-2.5c0.2-1.7,0.4-3.5,0.6-4.8
		C293.4,359.4,293.7,358.5,293.7,358.5z"/>
	<path fill="#605951" d="M332.7,307c0,0,0.4,0.4,0.6,1.2c0.3,0.7,0.4,1.7,0.3,2.7c-0.1,1-0.4,1.9-0.7,2.5c-0.3,0.7-0.7,1.1-0.7,1.1
		s-0.3-0.5-0.5-1.2c-0.2-0.7-0.2-1.7-0.2-2.6c0.1-0.9,0.3-1.8,0.6-2.5C332.4,307.5,332.7,307,332.7,307z"/>
	<path fill="#605951" d="M367.7,285.5c0,0,0.1,0.1,0.3,0.3c0.2,0.2,0.4,0.4,0.6,0.8c0.4,0.7,0.7,1.7,0.7,2.7c0,1-0.2,1.9-0.4,2.6
		c-0.2,0.7-0.6,1.2-0.6,1.2s-0.3-0.5-0.6-1.2c-0.3-0.7-0.4-1.7-0.4-2.6c0-0.9,0.1-1.8,0.2-2.5c0.1-0.4,0.1-0.6,0.2-0.9
		C367.7,285.6,367.7,285.5,367.7,285.5z"/>
	<path fill="#605951" d="M288.7,195.5c0,0,0.5,0,1,0.2c0.6,0.2,1.2,0.7,1.6,1.3c0.4,0.6,0.6,1.4,0.6,2c0,0.6-0.2,1-0.2,1
		s-0.4-0.2-0.8-0.6c-0.4-0.3-0.9-0.8-1.2-1.3c-0.3-0.5-0.6-1.1-0.8-1.6c-0.1-0.3-0.1-0.5-0.2-0.7
		C288.7,195.6,288.7,195.5,288.7,195.5z"/>
	<path fill="#605951" d="M320.2,194c0,0,0.4,0.4,0.7,0.9c0.4,0.5,0.7,1.2,0.9,1.9c0.2,0.7,0.4,1.4,0.4,2.1c0,0.6,0,1.1,0,1.1
		s-0.5-0.2-1-0.6c-0.5-0.4-1-1.1-1.3-2c-0.3-0.8-0.3-1.7-0.2-2.3C319.9,194.4,320.2,194,320.2,194z"/>
	<path fill="#605951" d="M260.2,186.5c0,0,0,0.1-0.1,0.3c-0.1,0.2-0.2,0.5-0.4,0.7c-0.3,0.6-0.8,1.2-1.3,1.8c-0.6,0.6-1.3,1.1-2,1.3
		c-0.6,0.3-1.2,0.2-1.2,0.2s0.1-0.5,0.4-1.1c0.3-0.6,0.7-1.3,1.3-1.9c0.6-0.6,1.4-1.1,2-1.3C259.7,186.4,260.2,186.5,260.2,186.5z"
		/>
	<path fill="#605951" d="M226.7,301c0,0,0.3,0.3,0.6,0.8c0.3,0.5,0.4,1.1,0.4,1.7c0,0.6-0.2,1.2-0.4,1.7c-0.2,0.5-0.6,0.8-0.6,0.8
		s-0.3-0.3-0.6-0.8c-0.3-0.5-0.4-1.1-0.4-1.7c0-0.6,0.2-1.2,0.4-1.7C226.4,301.3,226.7,301,226.7,301z"/>
	<path fill="#605951" d="M361.2,369.5c0,0,0,0.9-0.3,2.3c-0.3,1.4-1,3.1-2,4.6c-1,1.6-2.2,2.9-3.3,3.8c-1.1,0.9-1.9,1.3-1.9,1.3
		s0.1-0.2,0.3-0.6c0.2-0.4,0.4-0.9,0.8-1.4c0.7-1.2,1.6-2.6,2.5-4.1c0.9-1.5,1.8-2.9,2.6-4c0.4-0.6,0.7-1,0.9-1.3
		C361.1,369.6,361.2,369.5,361.2,369.5z"/>
	<path fill="#605951" d="M308.2,400.5c0,0,0,0.6-0.3,1.3c-0.3,0.7-0.8,1.5-1.5,2.2c-0.7,0.7-1.6,1.2-2.3,1.3
		c-0.7,0.2-1.3,0.2-1.3,0.2s0.2-0.5,0.6-1.1c0.4-0.6,1-1.3,1.6-1.9c0.7-0.6,1.4-1.1,2-1.5C307.7,400.6,308.2,400.5,308.2,400.5z"/>
	<g>
		<path fill="#FFFFFF" d="M246.4,402.1c0,0,16.7,43.2,30.9,36.5c14.2-6.7-5.2-39.8-5.2-39.8"/>
		<path fill="#605951" d="M274.1,441.8c-1.3,0-2.7-0.3-4.1-0.8c-13-5.2-24.7-34.6-26-38c-0.5-1.3,0.1-2.7,1.4-3.2
			c1.3-0.5,2.7,0.1,3.2,1.4c3.3,8.5,13.9,31.4,23.2,35.1c1.6,0.6,2.9,0.6,4.3,0c1.6-0.8,2.7-2,3.2-3.9c2.7-8.6-6-26.4-9.5-32.5
			c-0.7-1.2-0.3-2.7,0.9-3.4c1.2-0.7,2.7-0.3,3.4,0.9c0.6,1,13.9,24,10,36.5c-1,3.2-3,5.5-5.9,6.9
			C277,441.5,275.6,441.8,274.1,441.8z"/>
	</g>
	<g>
		<path fill="#FFFFFF" d="M325.6,402.1c0,0-14.4,43.2-28.5,36.5c-14.2-6.7,2.8-39.8,2.8-39.8"/>
		<path fill="#605951" d="M300.1,441.8c-1.4,0-2.8-0.3-4.1-0.9c-2.9-1.4-5-3.7-6.1-7c-4.3-12.5,7.3-35.3,7.8-36.2
			c0.6-1.2,2.1-1.7,3.4-1.1c1.2,0.6,1.7,2.1,1.1,3.4c-3.1,6-10.5,23.6-7.5,32.3c0.7,2,1.8,3.3,3.5,4.1c1.3,0.6,2.7,0.6,4.2,0
			c8.9-3.8,18.1-26.6,20.9-35c0.4-1.3,1.9-2,3.2-1.6c1.3,0.4,2,1.9,1.6,3.2c-1.1,3.3-11.2,32.6-23.7,38
			C302.9,441.5,301.5,441.8,300.1,441.8z"/>
	</g>
	<path fill="#605951" d="M135.4,364.6c0,0,0.2,0.2,0.4,0.4c0.3,0.3,0.6,0.7,1.1,1.1c0.9,0.9,2.2,2,3.5,3.2c0.6,0.6,1.2,1.3,1.7,1.9
		c0.5,0.7,0.9,1.3,1.2,1.9c0.2,0.3,0.3,0.6,0.4,0.8c0.1,0.3,0.2,0.5,0.2,0.7c0.1,0.4,0.1,0.6,0.1,0.6s-0.1-0.2-0.3-0.5
		c-0.2-0.3-0.5-0.8-0.9-1.3c-0.7-1-1.9-2.2-3.2-3.4c-0.6-0.6-1.2-1.2-1.8-1.8c-0.6-0.6-1.1-1.2-1.4-1.7c-0.4-0.5-0.7-1-0.8-1.4
		C135.5,364.8,135.4,364.6,135.4,364.6z"/>
	<path fill="#605951" d="M128.1,330.6c0,0,0.2,0.2,0.6,0.6c0.4,0.4,0.9,1,1.4,1.7c1.1,1.5,2.5,3.6,3.7,5.6c1.3,2.1,2.6,4.1,3.7,5.6
		c0.5,0.7,1,1.3,1.4,1.8c0.3,0.4,0.5,0.7,0.5,0.7s-0.3-0.2-0.7-0.5c-0.2-0.2-0.5-0.4-0.7-0.6c-0.3-0.2-0.6-0.5-0.9-0.9
		c-0.7-0.7-1.4-1.5-2.1-2.4c-0.7-0.9-1.4-2-2-3c-1.3-2.1-2.4-4.3-3.4-5.9c-0.5-0.8-0.8-1.5-1.1-1.9
		C128.2,330.9,128.1,330.6,128.1,330.6z"/>
	<path fill="#605951" d="M104.7,294c0,0,0.2,0.7,0.5,1.8c0.3,1.1,0.7,2.4,1.2,3.8c0.5,1.4,0.9,2.8,1.2,3.9c0.3,1.1,0.4,1.8,0.4,1.8
		s-0.4-0.6-0.9-1.6c-0.5-1-1.1-2.3-1.6-3.8c-0.2-0.7-0.4-1.4-0.6-2.1c-0.1-0.7-0.2-1.4-0.3-1.9C104.6,294.7,104.7,294,104.7,294z"/>
	<path fill="#605951" d="M108.7,254c0,0,0.2,0.6,0.3,1.5c0.2,0.9,0.3,2.1,0.2,3.3c0,1.2-0.3,2.4-0.6,3.3c-0.3,0.9-0.7,1.4-0.7,1.4
		s0-0.2,0-0.4c0-0.3,0-0.6,0.1-1.1c0.1-0.9,0.1-2,0.1-3.2c0-1.2,0.1-2.3,0.2-3.2C108.6,254.6,108.7,254,108.7,254z"/>
	<path fill="#605951" d="M124.1,247.3c0,0,0.2,0.5,0.3,1.3c0.1,0.8,0.3,1.8,0.2,2.8c0,0.5-0.1,1-0.2,1.5c-0.1,0.5-0.2,0.9-0.4,1.3
		c-0.3,0.7-0.7,1.1-0.7,1.1s0-0.5,0.1-1.3c0-0.7,0.1-1.7,0.1-2.7c0-1,0.1-2,0.2-2.8C123.9,247.8,124.1,247.3,124.1,247.3z"/>
	<path fill="#605951" d="M90.7,238c0,0,0,0.3,0.1,0.7c0.1,0.4,0.1,1.1,0.2,1.8c0.2,1.5,0.4,3.5,0.3,5.6c0,1-0.1,2.1-0.3,3
		c-0.2,1-0.4,1.8-0.6,2.6c-0.1,0.4-0.3,0.7-0.4,1c-0.1,0.3-0.2,0.5-0.4,0.7c-0.2,0.4-0.4,0.6-0.4,0.6s0.1-0.3,0.2-0.7
		c0.1-0.4,0.3-1,0.4-1.8c0.1-0.7,0.2-1.6,0.3-2.5c0.1-0.9,0.1-1.9,0.1-2.9c0-1,0-2,0-3c0-0.9,0-1.8,0.1-2.6
		C90.6,239,90.7,238,90.7,238z"/>
	<path fill="#605951" d="M85.4,312.6c0,0,0.6,0.5,1.3,1.4c0.8,0.9,1.8,2.1,2.6,3.4c0.2,0.3,0.4,0.7,0.6,1c0.2,0.3,0.3,0.7,0.5,1
		c0.3,0.7,0.5,1.3,0.7,1.9c0.2,0.6,0.2,1.1,0.3,1.4c0,0.3,0,0.5,0,0.5s-0.3-0.7-0.9-1.7c-0.5-1-1.3-2.3-2.1-3.6
		c-0.8-1.3-1.6-2.6-2.2-3.6C85.7,313.4,85.4,312.6,85.4,312.6z"/>
	<path fill="#605951" d="M114.1,353.3c0,0,0.6,0.3,1.5,0.9c0.8,0.6,1.8,1.6,2.7,2.7c0.9,1.1,1.7,2.2,2.2,3c0.6,0.8,1,1.4,1,1.4
		s-0.6-0.4-1.4-1c-0.8-0.7-1.7-1.7-2.6-2.7c-0.8-1.1-1.7-2.1-2.3-2.9C114.5,353.9,114.1,353.3,114.1,353.3z"/>
	<g>
		<path fill="#605951" d="M234.5,257.8c-0.2,0-0.5-0.1-0.7-0.2c-0.1,0-7.1-3.9-19.5-7.3c-11.4-3.2-29.8-6.6-52.5-5.2
			c-0.8,0-1.5-0.6-1.6-1.4c-0.1-0.8,0.6-1.5,1.4-1.6c44.4-2.8,73.3,12.7,73.6,12.9c0.7,0.4,1,1.3,0.6,2
			C235.6,257.5,235.1,257.8,234.5,257.8z"/>
		<path fill="#605951" d="M159.3,276.3c-0.6,0-1.1-0.3-1.4-0.9c-0.4-0.7,0-1.6,0.7-2c40.2-19.1,72.8-15.4,73.2-15.3
			c0.8,0.1,1.4,0.8,1.3,1.7c-0.1,0.8-0.8,1.4-1.7,1.3c-0.1,0-8.1-0.9-20.8,0.4c-11.8,1.3-30.1,4.9-50.7,14.6
			C159.7,276.2,159.5,276.3,159.3,276.3z"/>
		<path fill="#605951" d="M321.3,257.8c-0.5,0-1-0.3-1.3-0.8c-0.4-0.7-0.1-1.6,0.6-2c0.3-0.2,29.2-15.7,73.6-12.9
			c0.8,0.1,1.5,0.8,1.4,1.6c-0.1,0.8-0.8,1.5-1.6,1.4c-22.8-1.4-41.2,2-52.6,5.2c-12.3,3.4-19.3,7.2-19.4,7.3
			C321.8,257.8,321.6,257.8,321.3,257.8z"/>
		<path fill="#605951" d="M396.6,276.3c-0.2,0-0.4,0-0.6-0.1c-20.6-9.8-39-13.4-50.8-14.6c-12.7-1.4-20.6-0.4-20.7-0.4
			c-0.8,0.1-1.6-0.5-1.7-1.3c-0.1-0.8,0.5-1.6,1.3-1.7c0.3,0,32.9-3.7,73.2,15.3c0.7,0.4,1.1,1.2,0.7,2
			C397.7,275.9,397.1,276.3,396.6,276.3z"/>
	</g>
</g>
<g>
	<g>
		<path fill="#BCBEC0" d="M783.2,339.4c0,0-81.8-58.1-98.8-104.1l14.7,6.2c0,0-28.7-63.3-22.2-80.3l11.8,7.2c0,0-3.5-37.8,23.4-66.5
			l7.2,13.2c0,0,8.8-36.7,43.1-39.7l-1.2,10.2c0,0,16.4-11.6,48.2-3.2c0,0-3,35.5-14.9,44.8l12.9,7.9c0,0-29.9,14.3-43.4,34.1
			l11.7,5.5c0,0-19.9,21.4-19.6,35.6l9.4,4.6c0,0-2.5,0.2,5.8,37.7C779.7,290.2,783.2,339.4,783.2,339.4z"/>
		<path fill="#605951" d="M783.2,341.9c-0.5,0-1-0.2-1.4-0.5c-3.4-2.4-82.7-59.1-99.7-105.3c-0.3-0.9-0.1-2,0.6-2.7s1.8-0.9,2.7-0.5
			l8.9,3.8c-7.2-16.7-25.4-61.5-19.7-76.4c0.3-0.7,0.8-1.2,1.5-1.5c0.7-0.2,1.5-0.2,2.1,0.2l7.8,4.8c0-11.3,2.3-40.2,24.3-63.7
			c0.5-0.6,1.4-0.9,2.1-0.8c0.8,0.1,1.5,0.6,1.9,1.3l4.5,8.2C723,98.1,735,75.3,762.3,73c0.7-0.1,1.5,0.2,2,0.8s0.8,1.3,0.7,2
			l-0.6,5.5c7.1-3.1,22.4-7.4,45.8-1.2c1.2,0.3,2,1.4,1.8,2.6c0,0.4-0.8,9.2-3,19.2c-2.6,11.7-6.1,20-10.3,24.9l10.2,6.2
			c0.8,0.5,1.2,1.3,1.2,2.3c0,0.9-0.6,1.7-1.4,2.1c-0.3,0.1-27,13.1-40.6,30.9l8.9,4.2c0.7,0.3,1.2,1,1.4,1.8
			c0.2,0.8-0.1,1.6-0.6,2.2c0,0.1-4.9,5.3-9.7,12.2c-5.6,8.1-8.7,15-9.1,20.2l8,3.9c1,0.5,1.6,1.6,1.4,2.7c-0.1,0.3-0.2,0.6-0.3,0.8
			c-0.1,1.2-0.2,7.6,6,35.9c8.2,37.2,11.8,86.6,11.8,87.1c0.1,1-0.4,1.9-1.3,2.4C784,341.8,783.6,341.9,783.2,341.9z M689.1,240.1
			c17.7,37.6,74.8,82,91.1,94.1c-1.2-13.8-4.8-51.3-11.3-80.9c-5.3-23.9-6.3-33-6.1-36.8l-7.7-3.8c-0.8-0.4-1.4-1.3-1.4-2.2
			c-0.3-12.2,12.6-28.6,18-34.9l-8.6-4.1c-0.7-0.3-1.2-0.9-1.3-1.6c-0.2-0.7-0.1-1.5,0.3-2.1c10.9-16,31.6-28.2,40.3-32.9l-9.1-5.6
			c-0.7-0.4-1.1-1.2-1.2-2c0-0.8,0.3-1.6,1-2.1c8.5-6.6,12.6-30.1,13.7-40.9c-29-7-43.9,3.2-44.1,3.3c-0.8,0.6-1.9,0.6-2.7,0.1
			c-0.9-0.5-1.3-1.5-1.2-2.4l0.8-7c-29.6,4.6-37.8,37.1-37.8,37.4c-0.2,1-1.1,1.8-2.1,1.9c-1,0.1-2-0.4-2.5-1.3l-5.5-10.1
			c-23.3,27.2-20.5,61.7-20.4,62c0.1,0.9-0.4,1.8-1.2,2.3c-0.8,0.5-1.8,0.5-2.6,0l-8.9-5.4c-1.8,16.2,15.5,59.1,22.9,75.3
			c0.4,0.9,0.2,2-0.5,2.8c-0.7,0.7-1.8,1-2.8,0.6L689.1,240.1z M766.7,217.3c-0.3,0.1-0.5,0.2-0.8,0.2
			C766.2,217.5,766.5,217.4,766.7,217.3z"/>
	</g>
	<g>
		<path fill="#BCBEC0" d="M658.9,259.4c0,0-37.2-42.9-25.1-84.1c8.7-29.8,25.2-37.8,36.3-33c25,10.6,29.8,54.6,29.8,54.6"/>
		<path fill="#605951" d="M658.9,261.9c-0.7,0-1.4-0.3-1.9-0.9c-0.4-0.4-9.6-11.1-17.5-27.1c-10.5-21.3-13.3-41.8-8.2-59.3
			c5-17.1,13.3-29.2,23.3-33.9c5.5-2.6,11.3-2.9,16.4-0.7c11,4.7,19.7,15.7,25.7,32.8c4.4,12.5,5.6,23.4,5.7,23.9
			c0.2,1.4-0.8,2.6-2.2,2.8c-1.4,0.1-2.6-0.8-2.8-2.2c0-0.4-5-42.7-28.3-52.6c-3.8-1.6-8.1-1.4-12.3,0.6c-8.7,4.1-16,15.1-20.6,30.8
			c-11.5,39.4,24.3,81.3,24.6,81.8c0.9,1,0.8,2.6-0.3,3.5C660.1,261.7,659.5,261.9,658.9,261.9z"/>
	</g>
	<g>
		<path fill="#BCBEC0" d="M806.9,259.4c0,0,37.2-42.9,25.1-84.1c-8.7-29.8-25.2-37.8-36.3-33c-25,10.6-33,55.7-33,55.7"/>
		<path fill="#605951" d="M806.9,261.9c-0.6,0-1.2-0.2-1.6-0.6c-1-0.9-1.2-2.5-0.3-3.5c0.4-0.4,36.2-42.4,24.6-81.8
			c-4.6-15.8-11.9-26.7-20.6-30.8c-4.3-2-8.5-2.2-12.3-0.6c-23.4,9.9-31.4,53.4-31.5,53.8c-0.2,1.4-1.5,2.3-2.9,2
			c-1.4-0.2-2.3-1.5-2-2.9c0.1-0.5,2.1-11.7,7.3-24.4c7.1-17.4,16.2-28.5,27.2-33.2c5.1-2.2,10.9-1.9,16.4,0.7
			c10,4.7,18.3,16.8,23.3,33.9c5.1,17.5,2.3,38-8.2,59.3c-7.8,16-17.1,26.7-17.4,27.1C808.3,261.6,807.6,261.9,806.9,261.9z"/>
	</g>
	<g>
		<path fill="#F7BEAF" d="M684.1,213c0,0-11.7-10.2-11.9-34.3s-8.3-22.3-14.3-20.2c-5.3,1.8-20.5,17.3-15.3,48.7
			c5.2,31.4,19.2,44.3,19.2,44.3"/>
		<path fill="#605951" d="M661.7,254c-0.6,0-1.2-0.2-1.7-0.7c-0.6-0.5-14.7-13.8-19.9-45.7c-5.4-32.9,10.5-49.2,16.9-51.5
			c2.5-0.9,7.2-2.5,11.2,0.3c4.3,3,6.3,10.1,6.4,22.2c0.1,11.8,3.1,20,5.6,24.7c2.7,5.2,5.4,7.6,5.5,7.7c1,0.9,1.1,2.5,0.2,3.5
			c-0.9,1-2.5,1.1-3.5,0.2c-0.5-0.4-12.5-11.2-12.8-36.1c-0.1-12.6-2.4-16.8-4.3-18.2c-1.6-1.1-3.7-0.7-6.7,0.3
			c-4.4,1.5-18.5,16.3-13.6,45.9c5,30.2,18.2,42.7,18.4,42.8c1,0.9,1.1,2.5,0.2,3.5C663,253.7,662.4,254,661.7,254z"/>
	</g>
	<g>
		<path fill="#F7BEAF" d="M780.1,215.5c0,0,13.5-12.8,13.7-36.8s8.3-22.3,14.3-20.2c5.3,1.8,20.5,17.3,15.3,48.7
			s-21.1,45.6-21.1,45.6"/>
		<path fill="#605951" d="M802.2,255.3c-0.7,0-1.4-0.3-1.9-0.8c-0.9-1-0.8-2.6,0.2-3.5c0,0,3.9-3.5,8.3-10.6
			c4.1-6.6,9.4-17.7,12-33.5c4.9-29.7-9.2-44.4-13.6-45.9c-2.9-1-5.1-1.4-6.7-0.3c-1.9,1.3-4.2,5.6-4.3,18.2
			c-0.3,24.8-13.9,38-14.5,38.6c-1,0.9-2.6,0.9-3.5-0.1c-0.9-1-0.9-2.6,0.1-3.5l0,0c0,0,3.2-3.1,6.4-9c2.9-5.4,6.4-14.3,6.5-26.1
			c0.1-12.2,2.2-19.2,6.4-22.2c4-2.8,8.7-1.2,11.2-0.3c6.4,2.2,22.4,18.5,16.9,51.5c-5.3,31.9-21.2,46.4-21.9,47
			C803.4,255.1,802.8,255.3,802.2,255.3z"/>
	</g>
	<path fill="#605951" d="M663.9,230.6c-0.5,0-1-0.2-1.5-0.5c-1-0.7-1.3-2-0.8-3.1l6.3-13.8l-12-2.4c-1.1-0.2-1.9-1.1-2-2.2
		c-0.1-1.1,0.5-2.1,1.5-2.6l10.4-4.3c-4.4-6-5.4-11.2-5.4-11.5c-0.2-0.9,0.2-1.9,1-2.4s1.8-0.7,2.6-0.2l11.3,5.5
		c1.2,0.6,1.8,2.1,1.2,3.3c-0.6,1.2-2.1,1.8-3.3,1.2l-5.6-2.7c1,1.9,2.4,4.1,4.3,6.3c0.5,0.6,0.7,1.4,0.6,2.2s-0.7,1.4-1.5,1.7
		l-5.8,2.4l7,1.4c0.8,0.1,1.4,0.6,1.7,1.3c0.4,0.7,0.4,1.5,0.1,2.2l-3.1,6.9c2.1-1.4,4.2-2.5,5.8-2.8c1.4-0.2,2.6,0.7,2.8,2.1
		c0.2,1.4-0.7,2.6-2.1,2.8c-1.8,0.3-7.4,4.6-11.5,8.4C665.1,230.4,664.5,230.6,663.9,230.6z"/>
	<path fill="#605951" d="M802,230.6c-0.6,0-1.2-0.2-1.7-0.7c-4.1-3.8-9.6-8.1-11.5-8.4c-1.4-0.2-2.3-1.5-2.1-2.8
		c0.2-1.4,1.5-2.3,2.8-2.1c1.6,0.2,3.7,1.4,5.8,2.8l-3.1-6.9c-0.3-0.7-0.3-1.5,0.1-2.2c0.4-0.7,1-1.2,1.7-1.3l7-1.4l-5.8-2.4
		c-0.8-0.3-1.3-1-1.5-1.7s0-1.6,0.6-2.2c2-2.2,3.4-4.4,4.4-6.3l-5.6,2.7c-1.2,0.6-2.7,0.1-3.3-1.2c-0.6-1.2-0.1-2.7,1.2-3.3
		l11.3-5.5c0.8-0.4,1.8-0.3,2.6,0.2c0.8,0.6,1.1,1.5,1,2.4c0,0.2-1,5.4-5.4,11.5l10.4,4.3c1,0.4,1.6,1.5,1.5,2.6
		c-0.1,1.1-0.9,2-2,2.2l-12,2.4l6.3,13.8c0.5,1.1,0.2,2.4-0.8,3.1C803,230.5,802.5,230.6,802,230.6z"/>
	<g>
		<path fill="#BCBEC0" d="M840.4,421.7c-14.4-8.7-34.6-11.6-46.1-12.6c25.2-9.7,42.4-27.4,46.4-55.8c8.7-61-21.5-128.1-63.8-166.3
			c-24.7-22.3-67.8-22.3-92.4,0c-18.1,16.4-36.6,36.3-50.8,77.7c-20.9,61-18.2,125.9,35.8,146c-10.9,1.7-23.9,5-34,11.1
			c-21.3,12.8,12.1,16.8,36.7,5.5c10.1-4.6,17.6-8.3,22.9-10.9c30,3.5,58.3,3.3,81.9-2c5.3,2.7,13.9,6.9,26.8,12.9
			C828.4,438.5,861.7,434.5,840.4,421.7z"/>
		<path fill="#605951" d="M642.3,436.4c-7.8,0-13.8-1.7-15.6-5.1c-1.9-3.7,0.6-7.6,7.4-11.7c7.1-4.3,16-7.6,26.8-9.9
			c-50.1-24.7-48.6-90.5-29.6-145.8c14.7-43,34.3-63.2,51.5-78.7c25.5-23.1,70.3-23.1,95.8,0c21.5,19.5,39.9,46.3,51.6,75.6
			c12.6,31.4,17.1,63.6,12.9,93c-3.5,24.6-16.7,42.8-39.4,54c11.4,1.6,26.4,5,37.9,11.9c6.9,4.1,9.3,8.1,7.4,11.7
			c-4,7.5-28.3,6.5-46.5-1.8c-12.6-5.8-21-9.9-26.1-12.5c-22.3,4.9-49.5,5.5-81.1,1.9c-6.4,3.2-13.9,6.7-22.3,10.6
			C663.3,434,651.6,436.4,642.3,436.4z M730.8,172.7c-16.3,0-32.7,5.4-44.5,16.1c-16.7,15.1-35.8,34.8-50.2,76.6
			c-19.1,55.7-20.2,122.5,34.3,142.8c1.1,0.4,1.7,1.5,1.6,2.6c-0.1,1.1-1,2-2.1,2.2c-13.8,2.2-24.9,5.8-33.1,10.8
			c-5.1,3.1-5.7,4.9-5.6,5.1c1.7,3.2,21.5,4.4,40-4.1c8.7-4,16.3-7.6,22.8-10.9c0.4-0.2,0.9-0.3,1.4-0.2c31.7,3.7,59,3,81.1-1.9
			c0.6-0.1,1.2-0.1,1.7,0.2c4.9,2.5,13.5,6.8,26.7,12.8c18.5,8.5,38.3,7.2,40,4.1c0.1-0.2-0.4-2-5.6-5.1
			c-14.1-8.5-34.3-11.3-45.1-12.2c-1.2-0.1-2.1-1-2.3-2.1c-0.2-1.2,0.5-2.3,1.6-2.7c26.1-10.1,41.2-28.2,44.9-53.8
			c4.1-28.5-0.3-59.8-12.6-90.4c-11.5-28.6-29.4-54.7-50.3-73.7C763.4,178.1,747.1,172.7,730.8,172.7z"/>
	</g>
	<circle fill="#605951" cx="695" cy="229.4" r="14.2"/>
	<circle fill="#FFFFFF" cx="695" cy="225.1" r="8.8"/>
	<circle fill="#FFFFFF" cx="684.5" cy="236.7" r="3.8"/>
	<circle fill="#FFFFFF" cx="697.7" cy="238.9" r="2"/>
	<circle fill="#605951" cx="762.7" cy="229.4" r="14.2"/>
	<circle fill="#FFFFFF" cx="762.7" cy="225.1" r="8.8"/>
	<circle fill="#FFFFFF" cx="752.3" cy="236.7" r="3.8"/>
	<circle fill="#FFFFFF" cx="765.5" cy="238.9" r="2"/>
	<path fill="#605951" d="M715.4,267c-0.2,0-0.4,0-0.6,0c-8-0.4-13-9-13.2-9.4c-0.7-1.2-0.3-2.7,0.9-3.4c1.2-0.7,2.7-0.3,3.4,0.9
		c0.1,0.1,3.9,6.6,9.2,6.9c3.3,0.1,6.7-2.2,10.1-7.1c0.8-1.1,2.4-1.4,3.5-0.6c1.1,0.8,1.4,2.4,0.6,3.5
		C724.9,263.9,720.3,267,715.4,267z"/>
	<path fill="#605951" d="M739.1,267c-4.9,0-9.6-3.1-13.9-9.2c-0.8-1.1-0.5-2.7,0.6-3.5c1.1-0.8,2.7-0.5,3.5,0.6
		c3.4,4.9,6.8,7.2,10.1,7.1c5.3-0.2,9.1-6.8,9.2-6.9c0.7-1.2,2.2-1.6,3.4-0.9c1.2,0.7,1.6,2.2,0.9,3.4c-0.2,0.4-5.2,9-13.2,9.4
		C739.4,267,739.3,267,739.1,267z"/>
	<path fill="#605951" d="M802.5,286.3c-0.5,0-1.1-0.2-1.5-0.5c-1.1-0.8-1.3-2.4-0.4-3.5c17.4-22.4,0.7-46.9-0.1-47.9
		c-0.8-1.1-0.5-2.7,0.6-3.5c1.1-0.8,2.7-0.5,3.5,0.6c0.2,0.3,19.6,28.5-0.1,53.8C804,285.9,803.3,286.3,802.5,286.3z"/>
	<path fill="#605951" d="M661.1,286.3c-0.7,0-1.5-0.3-2-1c-19.7-25.4-0.3-53.6-0.1-53.8c0.8-1.1,2.4-1.4,3.5-0.6
		c1.1,0.8,1.4,2.4,0.6,3.5c-0.7,1.1-17.5,25.5-0.1,47.9c0.8,1.1,0.6,2.7-0.4,3.5C662.2,286.1,661.6,286.3,661.1,286.3z"/>
	<path fill="#605951" d="M641.2,294.5c0,0,0.2,0.8,0.2,1.9c0,1.1-0.2,2.6-0.5,4c-0.3,1.4-0.8,2.8-1.3,3.8c-0.4,1-0.9,1.7-0.9,1.7
		s-0.2-0.8-0.2-1.9c-0.1-1.1,0.1-2.6,0.4-4.1c0.3-1.4,0.8-2.8,1.3-3.8C640.7,295.1,641.2,294.5,641.2,294.5z"/>
	<path fill="#605951" d="M659.2,368c0,0,0.1,0.2,0.2,0.6c0.1,0.4,0.2,0.9,0.4,1.6c0.3,1.3,0.9,2.9,1.4,4.6c0.5,1.7,1.1,3.4,1.3,4.8
		c0.3,1.4,0.2,2.3,0.2,2.3s-0.6-0.7-1.3-1.9c-0.7-1.2-1.6-2.8-2.1-4.6c-0.3-0.9-0.5-1.8-0.6-2.7c-0.1-0.9-0.1-1.7,0-2.4
		c0-0.4,0.1-0.7,0.2-1c0.1-0.3,0.1-0.5,0.2-0.7C659.1,368.2,659.2,368,659.2,368z"/>
	<path fill="#605951" d="M689.7,339.5c0,0,0.4,0.4,0.6,1.2c0.3,0.8,0.4,1.8,0.2,2.9c-0.2,1-0.7,2-1.3,2.6c-0.5,0.6-1.1,0.8-1.1,0.8
		s0-0.2,0-0.4c0-0.2,0-0.6,0.1-0.9c0-0.7,0.2-1.6,0.3-2.5c0.2-0.9,0.4-1.8,0.6-2.5c0.1-0.4,0.2-0.6,0.3-0.9
		C689.6,339.6,689.7,339.5,689.7,339.5z"/>
	<path fill="#605951" d="M743.7,358.5c0,0,0.4,0.9,0.6,2.2c0.3,1.3,0.4,3.2,0.2,5c-0.1,0.9-0.3,1.8-0.5,2.7
		c-0.2,0.8-0.5,1.6-0.9,2.2c-0.3,0.6-0.7,1.1-1,1.4c-0.3,0.3-0.5,0.5-0.5,0.5s0-0.2,0.1-0.6c0.1-0.4,0.1-0.9,0.2-1.6
		c0.1-0.3,0.1-0.7,0.1-1c0-0.4,0.1-0.8,0.1-1.2c0.1-0.8,0.2-1.7,0.3-2.5c0.2-1.7,0.4-3.5,0.6-4.8
		C743.4,359.4,743.7,358.5,743.7,358.5z"/>
	<path fill="#605951" d="M782.7,307c0,0,0.4,0.4,0.6,1.2c0.3,0.7,0.4,1.7,0.3,2.7c-0.1,1-0.4,1.9-0.7,2.5c-0.3,0.7-0.7,1.1-0.7,1.1
		s-0.3-0.5-0.5-1.2c-0.2-0.7-0.2-1.7-0.2-2.6c0.1-0.9,0.3-1.8,0.6-2.5C782.4,307.5,782.7,307,782.7,307z"/>
	<path fill="#605951" d="M817.7,285.5c0,0,0.1,0.1,0.3,0.3c0.2,0.2,0.4,0.4,0.6,0.8c0.4,0.7,0.7,1.7,0.7,2.7c0,1-0.2,1.9-0.4,2.6
		c-0.2,0.7-0.6,1.2-0.6,1.2s-0.3-0.5-0.6-1.2c-0.3-0.7-0.4-1.7-0.4-2.6c0-0.9,0.1-1.8,0.2-2.5c0.1-0.4,0.1-0.6,0.2-0.9
		C817.7,285.6,817.7,285.5,817.7,285.5z"/>
	<path fill="#605951" d="M738.7,195.5c0,0,0.5,0,1,0.2c0.6,0.2,1.2,0.7,1.6,1.3c0.4,0.6,0.6,1.4,0.6,2c0,0.6-0.2,1-0.2,1
		s-0.4-0.2-0.8-0.6c-0.4-0.3-0.9-0.8-1.2-1.3c-0.3-0.5-0.6-1.1-0.8-1.6c-0.1-0.3-0.1-0.5-0.2-0.7
		C738.7,195.6,738.7,195.5,738.7,195.5z"/>
	<path fill="#605951" d="M770.2,194c0,0,0.4,0.4,0.7,0.9c0.4,0.5,0.7,1.2,0.9,1.9c0.2,0.7,0.4,1.4,0.4,2.1c0,0.6,0,1.1,0,1.1
		s-0.5-0.2-1-0.6c-0.5-0.4-1-1.1-1.3-2c-0.3-0.8-0.3-1.7-0.2-2.3C769.9,194.4,770.2,194,770.2,194z"/>
	<path fill="#605951" d="M710.2,186.5c0,0,0,0.1-0.1,0.3c-0.1,0.2-0.2,0.5-0.4,0.7c-0.3,0.6-0.8,1.2-1.3,1.8c-0.6,0.6-1.3,1.1-2,1.3
		c-0.6,0.3-1.2,0.2-1.2,0.2s0.1-0.5,0.4-1.1c0.3-0.6,0.7-1.3,1.3-1.9c0.6-0.6,1.4-1.1,2-1.3C709.7,186.4,710.2,186.5,710.2,186.5z"
		/>
	<path fill="#605951" d="M676.7,301c0,0,0.3,0.3,0.6,0.8c0.3,0.5,0.4,1.1,0.4,1.7c0,0.6-0.2,1.2-0.4,1.7c-0.2,0.5-0.6,0.8-0.6,0.8
		s-0.3-0.3-0.6-0.8c-0.3-0.5-0.4-1.1-0.4-1.7c0-0.6,0.2-1.2,0.4-1.7C676.4,301.3,676.7,301,676.7,301z"/>
	<path fill="#605951" d="M811.2,369.5c0,0,0,0.9-0.3,2.3c-0.3,1.4-1,3.1-2,4.6c-1,1.6-2.2,2.9-3.3,3.8c-1.1,0.9-1.9,1.3-1.9,1.3
		s0.1-0.2,0.3-0.6c0.2-0.4,0.4-0.9,0.8-1.4c0.7-1.2,1.6-2.6,2.5-4.1c0.9-1.5,1.8-2.9,2.6-4c0.4-0.6,0.7-1,0.9-1.3
		C811.1,369.6,811.2,369.5,811.2,369.5z"/>
	<path fill="#605951" d="M758.2,400.5c0,0,0,0.6-0.3,1.3c-0.3,0.7-0.8,1.5-1.5,2.2c-0.7,0.7-1.6,1.2-2.3,1.3
		c-0.7,0.2-1.3,0.2-1.3,0.2s0.2-0.5,0.6-1.1c0.4-0.6,1-1.3,1.6-1.9c0.7-0.6,1.4-1.1,2-1.5C757.7,400.6,758.2,400.5,758.2,400.5z"/>
	<g>
		<path fill="#BCBEC0" d="M770.1,317.2c0,0-16.7-43.2-30.9-36.5c-14.2,6.7,5.2,39.8,5.2,39.8"/>
		<path fill="#605951" d="M744.4,323c-0.9,0-1.7-0.4-2.2-1.2c-0.6-1-13.9-24-10-36.5c1-3.2,3-5.5,5.9-6.9c2.6-1.2,5.4-1.3,8.2-0.1
			c13,5.2,24.7,34.6,26,38c0.5,1.3-0.1,2.7-1.4,3.2c-1.3,0.5-2.7-0.1-3.2-1.4c-3.3-8.5-13.9-31.4-23.2-35.1c-1.6-0.6-2.9-0.6-4.3,0
			c-1.6,0.8-2.7,2-3.2,3.9c-2.7,8.6,6,26.4,9.5,32.5c0.7,1.2,0.3,2.7-0.9,3.4C745.3,322.9,744.9,323,744.4,323z"/>
	</g>
	<g>
		<path fill="#BCBEC0" d="M690.9,317.2c0,0,14.4-43.2,28.5-36.5c14.2,6.7-2.8,39.8-2.8,39.8"/>
		<path fill="#605951" d="M716.6,323c-0.4,0-0.8-0.1-1.1-0.3c-1.2-0.6-1.7-2.1-1.1-3.4c3.1-6,10.5-23.6,7.5-32.3
			c-0.7-2-1.8-3.3-3.5-4.1c-1.3-0.6-2.7-0.6-4.2,0c-8.9,3.8-18.1,26.6-20.9,35c-0.4,1.3-1.9,2-3.2,1.6c-1.3-0.4-2-1.9-1.6-3.2
			c1.1-3.3,11.2-32.6,23.7-38c2.8-1.2,5.6-1.2,8.3,0c2.9,1.4,5,3.7,6.1,7c4.3,12.5-7.3,35.3-7.8,36.2
			C718.4,322.5,717.5,323,716.6,323z"/>
	</g>
	<path fill="#605951" d="M718.8,146c0,0,0-0.2,0.1-0.6c0-0.2,0.1-0.4,0.2-0.7c0.1-0.3,0.2-0.6,0.3-0.8c0.5-1.2,1.6-2.6,2.8-3.7
		c1.2-1.1,2.5-2.1,3.4-2.9c0.5-0.4,0.9-0.7,1.2-0.9c0.3-0.2,0.5-0.4,0.5-0.4s0,0.2-0.1,0.6c0,0.2-0.1,0.4-0.2,0.7
		c-0.1,0.3-0.2,0.5-0.4,0.8c-0.6,1.2-1.7,2.5-2.9,3.6c-1.2,1.1-2.4,2.1-3.3,2.9c-0.5,0.4-0.8,0.7-1.1,1
		C719,145.8,718.8,146,718.8,146z"/>
	<path fill="#605951" d="M743.3,121c0,0,0.7-0.7,1.8-1.6c0.5-0.5,1.2-1,1.9-1.5c0.7-0.5,1.5-1,2.4-1.5c0.4-0.2,0.8-0.4,1.3-0.6
		c0.4-0.2,0.9-0.4,1.3-0.5c0.9-0.3,1.7-0.5,2.4-0.6c0.4-0.1,0.7-0.1,1-0.1c0.3,0,0.6,0,0.8,0c0.4,0,0.7,0,0.7,0s-0.2,0.1-0.6,0.3
		c-0.4,0.2-0.9,0.5-1.5,0.8c-0.6,0.3-1.3,0.7-2.1,1.2c-0.7,0.4-1.5,0.9-2.4,1.3c-0.8,0.4-1.6,0.9-2.4,1.2c-0.8,0.4-1.6,0.7-2.2,1
		C744.3,120.8,743.3,121,743.3,121z"/>
	<path fill="#605951" d="M750.8,156c0,0,0.2-0.1,0.5-0.3c0.2-0.1,0.3-0.2,0.5-0.3c0.2-0.1,0.4-0.2,0.6-0.4c0.2-0.1,0.4-0.3,0.6-0.5
		c0.2-0.2,0.5-0.3,0.7-0.5c0.5-0.4,1-0.8,1.5-1.2c1.1-0.8,2.3-1.6,3.3-2c0.5-0.2,1-0.3,1.3-0.4c0.3-0.1,0.5-0.1,0.5-0.1
		s-0.1,0.2-0.3,0.4c-0.2,0.2-0.5,0.6-0.8,1c-0.7,0.8-1.6,1.8-2.8,2.6c-0.6,0.4-1.2,0.8-1.8,1.1c-0.6,0.3-1.3,0.5-1.9,0.5
		c-0.6,0.1-1.1,0-1.4,0C751,156,750.8,156,750.8,156z"/>
	<path fill="#605951" d="M783.8,106.5c0,0,0.1-0.2,0.4-0.5c0.1-0.1,0.3-0.3,0.4-0.5c0.2-0.2,0.3-0.4,0.5-0.7
		c0.7-1.1,1.6-2.5,2.6-3.9c1-1.4,2-2.8,2.9-3.8c0.9-1,1.6-1.6,1.6-1.6s-0.2,0.9-0.7,2.2c-0.5,1.3-1.2,2.9-2.2,4.3
		c-0.5,0.7-1.1,1.4-1.7,2.1c-0.6,0.6-1.2,1.1-1.8,1.5c-0.6,0.4-1.1,0.6-1.5,0.8C784,106.4,783.8,106.5,783.8,106.5z"/>
	<g>
		<path fill="#605951" d="M682.5,265.8c-0.2,0-0.5-0.1-0.7-0.2c-0.1,0-7.1-3.9-19.5-7.3c-11.4-3.2-29.8-6.6-52.5-5.2
			c-0.8,0.1-1.5-0.6-1.6-1.4c-0.1-0.8,0.6-1.5,1.4-1.6c44.4-2.8,73.3,12.7,73.6,12.9c0.7,0.4,1,1.3,0.6,2
			C683.5,265.5,683,265.8,682.5,265.8z"/>
		<path fill="#605951" d="M607.2,284.2c-0.6,0-1.1-0.3-1.4-0.9c-0.4-0.7,0-1.6,0.7-2c40.2-19.1,72.8-15.4,73.2-15.3
			c0.8,0.1,1.4,0.8,1.3,1.7c-0.1,0.8-0.8,1.4-1.7,1.3c-0.1,0-8.1-0.9-20.8,0.4c-11.8,1.3-30.1,4.9-50.7,14.6
			C607.7,284.2,607.5,284.2,607.2,284.2z"/>
		<path fill="#605951" d="M769.3,265.8c-0.5,0-1-0.3-1.3-0.8c-0.4-0.7-0.1-1.6,0.6-2c0.3-0.2,29.2-15.7,73.6-12.9
			c0.8,0.1,1.5,0.8,1.4,1.6c-0.1,0.8-0.8,1.4-1.6,1.4c-22.7-1.4-41.1,2-52.5,5.2c-12.4,3.4-19.4,7.3-19.5,7.3
			C769.8,265.7,769.5,265.8,769.3,265.8z"/>
		<path fill="#605951" d="M844.5,284.2c-0.2,0-0.4,0-0.6-0.1c-20.6-9.8-38.9-13.3-50.7-14.6c-12.8-1.4-20.8-0.5-20.8-0.4
			c-0.8,0.1-1.6-0.5-1.7-1.3c-0.1-0.8,0.5-1.6,1.3-1.7c0.3,0,32.9-3.7,73.2,15.3c0.7,0.4,1.1,1.2,0.7,2
			C845.6,283.9,845.1,284.2,844.5,284.2z"/>
	</g>
</g>
<g>
	<g>
		<path fill="#FFD9B3" d="M1148,266.6c0,0-56.8-31.8-59.8-80.9c-2.2-35.6,12.6-50.5,26.4-49.7c31,1.7,53.4,47.3,53.4,47.3"/>
		<path fill="#605951" d="M1148,269.5c-0.5,0-1-0.1-1.4-0.4c-0.6-0.3-14.7-8.3-29.3-22.5c-19.6-18.9-30.6-40-31.9-60.8
			c-1.2-20.4,3-36.6,11.9-45.6c4.9-5,11.1-7.5,17.4-7.1c13.7,0.8,27.3,9.3,40.4,25.4c9.6,11.7,15.2,23.1,15.4,23.6
			c0.7,1.4,0.1,3.1-1.3,3.8s-3.1,0.1-3.8-1.3c-0.2-0.4-21.9-44.1-50.9-45.7c-4.7-0.3-9.3,1.6-13.1,5.5c-7.8,7.8-11.4,22.5-10.3,41.2
			c2.9,47,57.7,78.3,58.3,78.6c1.4,0.8,1.9,2.5,1.1,3.9C1150,269,1149,269.5,1148,269.5z"/>
	</g>
	<g>
		<path fill="#FFD9B3" d="M1275.2,268c0,0,54.5-35.6,54.1-84.8c-0.3-35.6-16-49.5-29.7-47.8c-30.9,3.8-53.8,51-53.8,51"/>
		<path fill="#605951" d="M1275.2,270.9c-0.9,0-1.9-0.5-2.4-1.3c-0.9-1.3-0.5-3.1,0.8-4c0.5-0.3,53.1-35.3,52.8-82.4
			c-0.1-18.8-4.8-33.2-13.1-40.5c-4.1-3.6-8.7-5.1-13.4-4.5c-28.9,3.6-51.4,49-51.6,49.4c-0.7,1.4-2.4,2-3.8,1.3
			c-1.4-0.7-2-2.4-1.3-3.8c0.2-0.5,6-12.2,15.7-24.6c13.2-16.9,26.8-26.3,40.4-28c6.3-0.8,12.6,1.3,17.9,5.9
			c9.5,8.4,14.9,24.2,15,44.7c0.1,20.9-9.4,42.6-27.7,62.8c-13.7,15.1-27.2,24.1-27.7,24.4C1276.3,270.7,1275.7,270.9,1275.2,270.9z
			"/>
	</g>
	<g>
		<path fill="#F7BEAF" d="M1157.1,206.9c0,0-16.6-6.5-26.2-32.3c-9.6-25.8-17.6-20.8-23.3-16.3c-5,4-15.4,26.6,2.4,58.4
			c17.8,31.9,37.8,40.3,37.8,40.3"/>
		<path fill="#605951" d="M1147.9,259.9c-0.4,0-0.7-0.1-1.1-0.2c-0.9-0.4-21.2-9.2-39.2-41.5c-18.6-33.4-7.8-57.2-1.7-62.1
			c2.4-1.9,6.8-5.5,12.2-4c5.8,1.6,10.7,8.4,15.6,21.5c9,24.3,24.4,30.6,24.5,30.6c1.5,0.6,2.2,2.2,1.6,3.7
			c-0.6,1.5-2.2,2.2-3.7,1.6c-0.7-0.3-17.9-7.3-27.8-34c-5-13.5-9.2-17.2-11.7-17.9c-2.1-0.6-4.3,0.7-7.1,2.9
			c-4.2,3.4-13.7,24.7,3.1,54.8c8.9,15.9,18.3,25.7,24.7,31.1c6.9,5.8,11.7,7.9,11.8,7.9c1.5,0.6,2.1,2.3,1.5,3.8
			C1150.1,259.2,1149,259.9,1147.9,259.9z"/>
	</g>
	<g>
		<path fill="#F7BEAF" d="M1259.3,211.3c0,0,18.8-9.8,26.7-36.3s16.1-22,22.1-17.8c5.2,3.7,17.1,25.4,1.6,58.5s-37.6,43.6-37.6,43.6
			"/>
		<path fill="#605951" d="M1272.1,262.1c-1.1,0-2.1-0.6-2.6-1.6c-0.7-1.4-0.1-3.1,1.3-3.8c0,0,5.4-2.6,12.5-9.1
			c6.5-6,16-16.6,23.8-33.1c14.7-31.2,3.8-51.8-0.6-54.9c-2.9-2-5.1-3.2-7.2-2.4c-2.5,0.9-6.4,4.8-10.5,18.7
			c-8.1,27.3-27.3,37.6-28.1,38c-1.4,0.7-3.1,0.2-3.9-1.2c-0.7-1.4-0.2-3.1,1.2-3.9c0.1,0,4.5-2.4,9.9-7.9
			c4.9-5,11.5-13.7,15.4-26.7c4-13.4,8.4-20.5,14.1-22.5c5.3-1.8,9.9,1.4,12.4,3.1c6.4,4.5,18.8,27.5,2.5,62
			c-15.8,33.6-38,44.5-38.9,45C1272.9,262.1,1272.5,262.1,1272.1,262.1z"/>
	</g>
	<path fill="#605951" d="M1141.2,233.9c-0.3,0-0.5,0-0.8-0.1c-1.3-0.4-2.2-1.6-2.1-3l1.4-17.3l-13.9,2.1c-1.3,0.2-2.5-0.5-3-1.6
		c-0.5-1.1-0.3-2.5,0.7-3.4l9.6-8.6c-7.1-4.8-10.2-10-10.3-10.3c-0.5-0.9-0.5-2.1,0.1-3c0.6-0.9,1.6-1.4,2.7-1.3l14.3,1.6
		c1.6,0.2,2.7,1.6,2.5,3.2c-0.2,1.6-1.6,2.7-3.2,2.5l-7.1-0.8c1.8,1.6,4.1,3.5,7.1,5.1c0.8,0.4,1.4,1.3,1.5,2.2
		c0.1,0.9-0.2,1.8-0.9,2.5l-5.3,4.8l8-1.2c0.9-0.1,1.7,0.1,2.4,0.7c0.6,0.6,1,1.5,0.9,2.3l-0.7,8.6c1.7-2.3,3.5-4.4,5.1-5.2
		c1.4-0.7,3.1-0.2,3.9,1.2c0.7,1.4,0.2,3.1-1.2,3.9c-1.9,1-6.2,7.8-9.1,13.5C1143.2,233.3,1142.2,233.9,1141.2,233.9z"/>
	<path fill="#605951" d="M1278.9,231.8c-0.9,0-1.7-0.4-2.1-1.2c-2.9-4.8-7-10.5-8.8-11.2c-1.3-0.6-1.8-2-1.3-3.3
		c0.6-1.3,2-1.8,3.3-1.3c1.5,0.7,3.2,2.3,4.8,4.2l-1.1-7.4c-0.1-0.8,0.1-1.5,0.6-2.1c0.5-0.6,1.3-0.8,2-0.8l7.1,0.6l-4.9-3.9
		c-0.6-0.5-1-1.3-1-2.1c0-0.8,0.5-1.5,1.2-2c2.5-1.6,4.5-3.3,5.9-4.9l-6.2,1.1c-1.4,0.2-2.7-0.7-2.9-2c-0.2-1.4,0.7-2.7,2-2.9
		l12.3-2.2c0.9-0.2,1.9,0.2,2.4,1c0.6,0.8,0.7,1.8,0.3,2.6c-0.1,0.2-2.5,5-8.4,9.5l8.8,7c0.9,0.7,1.2,1.9,0.8,2.9
		c-0.4,1-1.4,1.7-2.5,1.6l-12.2-1l2.3,15c0.2,1.2-0.5,2.3-1.6,2.7C1279.5,231.7,1279.2,231.8,1278.9,231.8z"/>
	<g>
		<path fill="#FFD9B3" d="M1270.7,409.1c25.2-9.7,42.4-27.4,46.4-55.8c8.7-61-21.5-128.1-63.8-166.3c-24.7-22.3-67.8-22.3-92.4,0
			c-18.1,16.4-36.6,36.3-50.8,77.7c-20.9,61-18.2,125.9,35.8,146c-10.9,1.7,20.3,8.3,25.6,5.7c30,3.5,58.3,3.3,81.9-2
			C1258.6,417,1282.3,410.1,1270.7,409.1z"/>
		<path fill="#605951" d="M1209.8,421.1c-11.8,0-24.5-0.8-38-2.3c-6.4,2-25.9-1.9-29.4-4.7c-1.2-1-1.4-2.1-1.3-2.8
			c-53.9-23.2-52.8-90.9-33.4-147.6c14.7-42.9,34.3-63.2,51.5-78.7c25.5-23.1,70.3-23.1,95.8,0c21.5,19.5,39.9,46.3,51.6,75.6
			c12.6,31.4,17.1,63.6,12.9,93c-3.7,26-18.3,44.8-43.4,55.9c0.2,0.7,0.2,2-1.2,3.3c-2.5,2.1-9.4,3.6-10.7,3.8
			c-3.5,0.7-8.2,1.2-11.2,0.3C1240.3,419.7,1225.8,421.1,1209.8,421.1z M1171.5,413.8c0.1,0,0.2,0,0.3,0c31.7,3.7,59,3,81-1.9
			c0.6-0.1,1.2-0.1,1.7,0.2c0.8,0.4,3.8,0.6,8.9-0.4c2.1-0.4,3.8-0.9,5.1-1.3c-0.2-0.3-0.3-0.6-0.3-0.9c-0.2-1.2,0.5-2.3,1.6-2.7
			c26.1-10.1,41.2-28.2,44.9-53.8c4.1-28.5-0.3-59.8-12.6-90.4c-11.5-28.6-29.4-54.7-50.3-73.7c-23.7-21.5-65.4-21.5-89.1,0
			c-16.7,15.1-35.8,34.8-50.2,76.6c-19.1,55.7-20.2,122.5,34.3,142.8c1.1,0.4,1.7,1.5,1.6,2.6c0,0.2-0.1,0.4-0.1,0.5
			c2.2,0.7,5.5,1.5,9.5,2.1c7.5,1.2,11.7,1,12.6,0.5C1170.7,413.9,1171.1,413.8,1171.5,413.8z"/>
	</g>
	<circle fill="#605951" cx="1171.4" cy="229.4" r="14.2"/>
	<circle fill="#FFFFFF" cx="1171.4" cy="225.1" r="8.8"/>
	<circle fill="#FFFFFF" cx="1161" cy="236.7" r="3.8"/>
	<circle fill="#FFFFFF" cx="1174.1" cy="238.9" r="2"/>
	<circle fill="#605951" cx="1239.1" cy="229.4" r="14.2"/>
	<circle fill="#FFFFFF" cx="1239.1" cy="225.1" r="8.8"/>
	<circle fill="#FFFFFF" cx="1228.7" cy="236.7" r="3.8"/>
	<circle fill="#FFFFFF" cx="1241.9" cy="238.9" r="2"/>
	<path fill="#605951" d="M1191.8,267c-0.2,0-0.4,0-0.6,0c-8-0.4-13-9-13.2-9.4c-0.7-1.2-0.3-2.7,0.9-3.4c1.2-0.7,2.7-0.3,3.4,0.9
		c0.1,0.1,3.9,6.6,9.2,6.9c3.3,0.1,6.7-2.2,10.1-7.1c0.8-1.1,2.4-1.4,3.5-0.6c1.1,0.8,1.4,2.4,0.6,3.5
		C1201.3,263.9,1196.7,267,1191.8,267z"/>
	<path fill="#605951" d="M1215.5,267c-4.9,0-9.6-3.1-13.9-9.2c-0.8-1.1-0.5-2.7,0.6-3.5c1.1-0.8,2.7-0.5,3.5,0.6
		c3.4,4.9,6.9,7.2,10.1,7.1c5.3-0.2,9.1-6.8,9.2-6.9c0.7-1.2,2.2-1.6,3.4-0.9c1.2,0.7,1.6,2.2,0.9,3.4c-0.2,0.4-5.2,9-13.2,9.4
		C1215.9,267,1215.7,267,1215.5,267z"/>
	<path fill="#605951" d="M1278.9,286.3c-0.5,0-1.1-0.2-1.5-0.5c-1.1-0.8-1.3-2.4-0.4-3.5c17.4-22.4,0.7-46.9-0.1-47.9
		c-0.8-1.1-0.5-2.7,0.6-3.5c1.1-0.8,2.7-0.5,3.5,0.6c0.2,0.3,19.6,28.5-0.1,53.8C1280.4,285.9,1279.7,286.3,1278.9,286.3z"/>
	<path fill="#605951" d="M1137.5,286.3c-0.7,0-1.5-0.3-2-1c-19.7-25.4-0.3-53.6-0.1-53.8c0.8-1.1,2.4-1.4,3.5-0.6
		c1.1,0.8,1.4,2.4,0.6,3.5c-0.7,1.1-17.5,25.5-0.1,47.9c0.8,1.1,0.6,2.7-0.4,3.5C1138.6,286.1,1138.1,286.3,1137.5,286.3z"/>
	<path fill="#605951" d="M1117.6,294.5c0,0,0.2,0.8,0.2,1.9c0,1.1-0.2,2.6-0.5,4c-0.3,1.4-0.8,2.8-1.3,3.8c-0.4,1-0.9,1.7-0.9,1.7
		s-0.2-0.8-0.2-1.9c-0.1-1.1,0.1-2.6,0.4-4.1c0.3-1.4,0.8-2.8,1.3-3.8C1117.2,295.1,1117.6,294.5,1117.6,294.5z"/>
	<path fill="#605951" d="M1135.6,368c0,0,0.1,0.2,0.2,0.6c0.1,0.4,0.2,0.9,0.4,1.6c0.3,1.3,0.9,2.9,1.4,4.6c0.5,1.7,1.1,3.4,1.3,4.8
		c0.3,1.4,0.2,2.3,0.2,2.3s-0.6-0.7-1.3-1.9c-0.7-1.2-1.6-2.8-2.1-4.6c-0.3-0.9-0.5-1.8-0.6-2.7c-0.1-0.9-0.1-1.7,0-2.4
		c0-0.4,0.1-0.7,0.2-1c0.1-0.3,0.1-0.5,0.2-0.7C1135.5,368.2,1135.6,368,1135.6,368z"/>
	<path fill="#605951" d="M1166.1,339.5c0,0,0.4,0.4,0.6,1.2c0.3,0.8,0.4,1.8,0.2,2.9c-0.2,1-0.7,2-1.3,2.6c-0.5,0.6-1.1,0.8-1.1,0.8
		s0-0.2,0-0.4c0-0.2,0-0.6,0.1-0.9c0-0.7,0.2-1.6,0.3-2.5c0.2-0.9,0.4-1.8,0.6-2.5c0.1-0.4,0.2-0.6,0.3-0.9
		C1166.1,339.6,1166.1,339.5,1166.1,339.5z"/>
	<path fill="#605951" d="M1220.1,358.5c0,0,0.4,0.9,0.6,2.2c0.3,1.3,0.4,3.2,0.2,5c-0.1,0.9-0.3,1.8-0.5,2.7
		c-0.2,0.8-0.5,1.6-0.9,2.2c-0.3,0.6-0.7,1.1-1,1.4c-0.3,0.3-0.5,0.5-0.5,0.5s0-0.2,0.1-0.6c0.1-0.4,0.1-0.9,0.2-1.6
		c0.1-0.3,0.1-0.7,0.1-1c0-0.4,0.1-0.8,0.1-1.2c0.1-0.8,0.2-1.7,0.3-2.5c0.2-1.7,0.4-3.5,0.6-4.8
		C1219.8,359.4,1220.1,358.5,1220.1,358.5z"/>
	<path fill="#605951" d="M1284.1,332.5c0,0,0.4,0.9,0.6,2.2c0.3,1.3,0.4,3.2,0.2,5c-0.1,0.9-0.3,1.8-0.5,2.7
		c-0.2,0.8-0.5,1.6-0.9,2.2c-0.3,0.6-0.7,1.1-1,1.4c-0.3,0.3-0.5,0.5-0.5,0.5s0-0.2,0.1-0.6c0.1-0.4,0.1-0.9,0.2-1.6
		c0.1-0.3,0.1-0.7,0.1-1c0-0.4,0.1-0.8,0.1-1.2c0.1-0.8,0.2-1.7,0.3-2.5c0.2-1.7,0.4-3.5,0.6-4.8
		C1283.8,333.4,1284.1,332.5,1284.1,332.5z"/>
	<path fill="#605951" d="M1259.1,307c0,0,0.4,0.4,0.6,1.2c0.3,0.7,0.4,1.7,0.3,2.7c-0.1,1-0.4,1.9-0.7,2.5c-0.3,0.7-0.7,1.1-0.7,1.1
		s-0.3-0.5-0.5-1.2c-0.2-0.7-0.2-1.7-0.2-2.6c0.1-0.9,0.3-1.8,0.6-2.5C1258.8,307.5,1259.1,307,1259.1,307z"/>
	<path fill="#605951" d="M1294.1,285.5c0,0,0.1,0.1,0.3,0.3c0.2,0.2,0.4,0.4,0.6,0.8c0.4,0.7,0.7,1.7,0.7,2.7c0,1-0.2,1.9-0.4,2.6
		c-0.2,0.7-0.6,1.2-0.6,1.2s-0.3-0.5-0.6-1.2c-0.3-0.7-0.4-1.7-0.4-2.6c0-0.9,0.1-1.8,0.2-2.5c0.1-0.4,0.1-0.6,0.2-0.9
		C1294.1,285.6,1294.1,285.5,1294.1,285.5z"/>
	<path fill="#605951" d="M1215.1,195.5c0,0,0.5,0,1,0.2c0.6,0.2,1.2,0.7,1.6,1.3c0.4,0.6,0.6,1.4,0.6,2c0,0.6-0.2,1-0.2,1
		s-0.4-0.2-0.8-0.6c-0.4-0.3-0.9-0.8-1.2-1.3c-0.3-0.5-0.6-1.1-0.8-1.6c-0.1-0.3-0.1-0.5-0.2-0.7
		C1215.1,195.6,1215.1,195.5,1215.1,195.5z"/>
	<path fill="#605951" d="M1246.6,194c0,0,0.4,0.4,0.7,0.9c0.4,0.5,0.7,1.2,0.9,1.9c0.2,0.7,0.4,1.4,0.4,2.1c0,0.6,0,1.1,0,1.1
		s-0.5-0.2-1-0.6c-0.5-0.4-1-1.1-1.3-2c-0.3-0.8-0.3-1.7-0.2-2.3C1246.3,194.4,1246.6,194,1246.6,194z"/>
	<path fill="#605951" d="M1186.6,186.5c0,0,0,0.1-0.1,0.3c-0.1,0.2-0.2,0.5-0.4,0.7c-0.3,0.6-0.8,1.2-1.3,1.8
		c-0.6,0.6-1.3,1.1-2,1.3c-0.6,0.3-1.2,0.2-1.2,0.2s0.1-0.5,0.4-1.1c0.3-0.6,0.7-1.3,1.3-1.9c0.6-0.6,1.4-1.1,2-1.3
		C1186.1,186.4,1186.6,186.5,1186.6,186.5z"/>
	<path fill="#605951" d="M1153.1,301c0,0,0.3,0.3,0.6,0.8c0.3,0.5,0.4,1.1,0.4,1.7c0,0.6-0.2,1.2-0.4,1.7c-0.2,0.5-0.6,0.8-0.6,0.8
		s-0.3-0.3-0.6-0.8c-0.3-0.5-0.4-1.1-0.4-1.7c0-0.6,0.2-1.2,0.4-1.7C1152.8,301.3,1153.1,301,1153.1,301z"/>
	<path fill="#605951" d="M1287.6,369.5c0,0,0,0.9-0.3,2.3c-0.3,1.4-1,3.1-2,4.6c-1,1.6-2.2,2.9-3.3,3.8c-1.1,0.9-1.9,1.3-1.9,1.3
		s0.1-0.2,0.3-0.6c0.2-0.4,0.4-0.9,0.8-1.4c0.7-1.2,1.6-2.6,2.5-4.1c0.9-1.5,1.8-2.9,2.6-4c0.4-0.6,0.7-1,0.9-1.3
		C1287.5,369.6,1287.6,369.5,1287.6,369.5z"/>
	<path fill="#605951" d="M1234.6,400.5c0,0,0,0.6-0.3,1.3c-0.3,0.7-0.8,1.5-1.5,2.2c-0.7,0.7-1.6,1.2-2.3,1.3
		c-0.7,0.2-1.3,0.2-1.3,0.2s0.2-0.5,0.6-1.1c0.4-0.6,1-1.3,1.6-1.9c0.7-0.6,1.4-1.1,2-1.5C1234.1,400.6,1234.6,400.5,1234.6,400.5z"
		/>
	<g>
		<path fill="#FFD9B3" d="M1097.6,314.5c-26.9,18.5-22.5,81.5,12.7,102.8l0.9-10.4c0,0,42.9,49.6,60.9,51.8l-0.8-13.8
			c0,0,31.8,20.8,69.7,10.6l-8.3-12.6c0,0,36.6,9.5,55.3-19.4l-9.6-3.7c0,0,31.7-12.7,39.2-44.8c0,0-39.2-4-53,2.2l1.7-9.3
			c0,0-36.6,7.6-60.4,10.1l0.6-12.9c0,0-28.2,7.5-40.7,0.5l0.4-10.5c0,0-19.7,5.7-35.6,3.3c2.6-4.5,6.8-9.2,13.7-11.5
			C1130.3,341.8,1095.7,335.6,1097.6,314.5z"/>
		<path fill="#605951" d="M1172.1,461.2c-0.1,0-0.2,0-0.3,0c-8-1-21-10.2-38.6-27.5c-8.3-8.1-15.7-16.1-20-20.9l-0.4,4.7
			c-0.1,0.9-0.6,1.6-1.4,2c-0.8,0.4-1.7,0.4-2.4-0.1c-14.5-8.8-30.3-29.3-31.3-60.6c-0.6-20.7,6.3-38.1,18.4-46.4
			c0.8-0.5,1.8-0.6,2.7-0.1c0.8,0.5,1.3,1.4,1.2,2.4c-1.4,15.6,21.4,22.6,36.6,27.2c3.2,1,6.2,1.9,8.6,2.8c1,0.4,1.7,1.3,1.6,2.4
			c0,1.1-0.7,2-1.7,2.3c-4,1.3-7.3,3.7-10,7.1c14.4,0.9,30.3-3.6,30.5-3.7c0.8-0.2,1.6-0.1,2.2,0.4s1,1.3,1,2.1l-0.3,8.9
			c4.8,2,12.3,2.5,22.1,1.4c8.3-1,15.3-2.8,15.4-2.8c0.8-0.2,1.6,0,2.2,0.5c0.6,0.5,1,1.3,0.9,2.1l-0.5,9.9
			c23.4-2.8,56.9-9.7,57.3-9.8c0.8-0.2,1.7,0.1,2.3,0.7c0.6,0.6,0.9,1.4,0.7,2.2l-1,5.2c16.4-4.3,48.5-1.1,50-0.9
			c0.7,0.1,1.4,0.4,1.8,1c0.4,0.6,0.6,1.3,0.4,2c-5.9,25.2-25.8,38.7-35.4,44l4.2,1.7c0.7,0.3,1.2,0.8,1.5,1.6
			c0.2,0.7,0.1,1.5-0.3,2.1c-14.9,22.9-40.6,22.9-52.1,21.5l5.1,7.8c0.4,0.7,0.5,1.5,0.2,2.3c-0.3,0.8-0.9,1.3-1.7,1.5
			c-31,8.4-57.7-3.2-67.6-8.5l0.5,9.2c0,0.7-0.2,1.5-0.8,2C1173.3,461,1172.7,461.2,1172.1,461.2z M1171.3,442.4
			c0.5,0,1,0.1,1.4,0.4c0.3,0.2,29.4,18.8,64.3,11.1l-6.3-9.6c-0.6-0.9-0.5-2,0.1-2.8c0.6-0.8,1.7-1.2,2.7-1
			c1.4,0.4,32.9,8.1,50.8-15.8l-6.6-2.6c-1-0.4-1.6-1.3-1.6-2.3c0-1,0.6-2,1.6-2.3c0.3-0.1,28.7-11.9,37-40.2
			c-9.2-0.8-37.9-2.6-48.8,2.2c-0.8,0.4-1.8,0.3-2.6-0.3c-0.7-0.6-1.1-1.5-0.9-2.4l1.1-5.7c-9.9,2-37.7,7.4-57,9.4
			c-0.7,0.1-1.5-0.2-2-0.7c-0.5-0.5-0.8-1.2-0.8-1.9l0.5-9.5c-8,1.8-28.5,5.5-39.2-0.5c-0.8-0.5-1.3-1.3-1.3-2.3l0.2-7.1
			c-6.4,1.5-20.9,4.4-33.4,2.5c-0.8-0.1-1.5-0.6-1.9-1.4c-0.4-0.7-0.3-1.6,0.1-2.3c2.4-4.2,5.5-7.4,9.2-9.8
			c-0.8-0.3-1.7-0.5-2.6-0.8c-15.1-4.6-37.1-11.3-39.9-27.1c-8.4,8.2-13.1,22.4-12.6,39.1c0.7,22.5,10.5,43.2,25.4,54.2l0.5-6.2
			c0.1-1,0.8-1.9,1.7-2.2c1-0.3,2,0,2.7,0.7c11,12.7,41,44.6,56.3,50.2l-0.6-10.4c-0.1-0.9,0.4-1.8,1.2-2.3
			C1170.5,442.5,1170.9,442.4,1171.3,442.4z"/>
	</g>
	<path fill="#605951" d="M1205.3,428.9c0,0,0.2-0.1,0.6-0.2c0.4-0.1,0.8-0.3,1.4-0.5c1.1-0.4,2.6-1,4.1-1.5c1.6-0.5,3.2-0.9,4.6-0.9
		c0.3,0,0.6,0,0.9,0c0.3,0,0.5,0.1,0.7,0.1c0.4,0.1,0.6,0.2,0.6,0.2s-0.2,0.1-0.5,0.2c-0.3,0.1-0.8,0.3-1.4,0.6
		c-1.1,0.5-2.6,1.1-4.1,1.7c-1.6,0.5-3.3,0.9-4.6,0.8c-0.3,0-0.6,0-0.9-0.1c-0.3,0-0.5-0.1-0.7-0.2
		C1205.6,429,1205.3,428.9,1205.3,428.9z"/>
	<path fill="#605951" d="M1159.7,405.9c0,0,0.2,0.1,0.5,0.3c0.3,0.2,0.7,0.5,1.2,0.8c1,0.7,2.4,1.5,3.7,2.4c1.3,0.9,2.6,2.1,3.4,3.1
		c0.2,0.3,0.4,0.5,0.5,0.7c0.1,0.2,0.2,0.4,0.3,0.6c0.2,0.4,0.2,0.6,0.2,0.6s-0.2-0.1-0.5-0.3c-0.3-0.2-0.8-0.4-1.3-0.8
		c-1.1-0.6-2.4-1.4-3.8-2.4c-1.4-1-2.6-2.1-3.4-3.3c-0.2-0.3-0.3-0.5-0.5-0.8c-0.1-0.2-0.2-0.5-0.3-0.6
		C1159.8,406.1,1159.7,405.9,1159.7,405.9z"/>
	<path fill="#605951" d="M1150.3,423c0,0,0.1,0.2,0.3,0.5c0.2,0.3,0.5,0.7,0.8,1.3c0.7,1,1.6,2.3,2.4,3.7c0.9,1.4,1.6,2.9,1.9,4.2
		c0.1,0.3,0.1,0.6,0.2,0.9c0,0.3,0.1,0.5,0.1,0.7c0,0.4,0,0.6,0,0.6s-0.1-0.2-0.4-0.5c-0.2-0.3-0.5-0.7-0.9-1.2
		c-0.7-1-1.7-2.3-2.5-3.7c-0.9-1.4-1.6-3-1.8-4.3c-0.1-0.3-0.1-0.6-0.1-0.9c0-0.3,0-0.5,0-0.7C1150.3,423.2,1150.3,423,1150.3,423z"
		/>
	<path fill="#605951" d="M1115.1,388.8c0,0,0.2,0.1,0.5,0.3c0.3,0.2,0.7,0.5,1.2,0.8c1,0.7,2.4,1.5,3.7,2.4c1.3,0.9,2.6,2.1,3.4,3.1
		c0.2,0.3,0.4,0.5,0.5,0.7c0.1,0.2,0.2,0.4,0.3,0.6c0.2,0.4,0.2,0.6,0.2,0.6s-0.2-0.1-0.5-0.3c-0.3-0.2-0.8-0.4-1.3-0.8
		c-1.1-0.6-2.4-1.4-3.8-2.4c-1.4-1-2.6-2.1-3.4-3.3c-0.2-0.3-0.3-0.5-0.5-0.8c-0.1-0.2-0.2-0.5-0.3-0.6
		C1115.2,389,1115.1,388.8,1115.1,388.8z"/>
	<path fill="#605951" d="M1142.7,376.2c0,0,0.2,0.1,0.5,0.3c0.3,0.2,0.8,0.4,1.3,0.7c1.1,0.5,2.5,1.1,4,1.9c1.5,0.7,2.9,1.7,3.8,2.6
		c0.2,0.2,0.4,0.4,0.6,0.7c0.2,0.2,0.3,0.4,0.4,0.6c0.2,0.3,0.3,0.5,0.3,0.5s-0.2-0.1-0.6-0.2c-0.3-0.1-0.8-0.3-1.4-0.6
		c-1.1-0.4-2.6-1-4.1-1.8c-1.5-0.7-2.9-1.7-3.8-2.7c-0.2-0.2-0.4-0.5-0.6-0.7c-0.2-0.2-0.3-0.4-0.4-0.6
		C1142.8,376.4,1142.7,376.2,1142.7,376.2z"/>
	<path fill="#605951" d="M1106.6,351.4c0,0,0.2,0.1,0.5,0.3c0.3,0.2,0.8,0.4,1.3,0.7c1.1,0.5,2.5,1.1,4,1.9c1.5,0.7,2.9,1.7,3.8,2.6
		c0.2,0.2,0.4,0.4,0.6,0.7c0.2,0.2,0.3,0.4,0.4,0.6c0.2,0.3,0.3,0.5,0.3,0.5s-0.2-0.1-0.6-0.2c-0.3-0.1-0.8-0.3-1.4-0.6
		c-1.1-0.4-2.6-1-4.1-1.8c-1.5-0.7-2.9-1.7-3.8-2.7c-0.2-0.2-0.4-0.5-0.6-0.7c-0.2-0.2-0.3-0.4-0.4-0.6
		C1106.7,351.6,1106.6,351.4,1106.6,351.4z"/>
	<path fill="#605951" d="M1184.4,383c0,0,0.2,0.1,0.5,0.3c0.3,0.2,0.8,0.4,1.3,0.7c1.1,0.5,2.5,1.1,4,1.9c1.5,0.7,2.9,1.7,3.8,2.6
		c0.2,0.2,0.4,0.4,0.6,0.7c0.2,0.2,0.3,0.4,0.4,0.6c0.2,0.3,0.3,0.5,0.3,0.5s-0.2-0.1-0.6-0.2c-0.3-0.1-0.8-0.3-1.4-0.6
		c-1.1-0.4-2.6-1-4.1-1.8c-1.5-0.7-2.9-1.7-3.8-2.7c-0.2-0.2-0.4-0.5-0.6-0.7c-0.2-0.2-0.3-0.4-0.4-0.6
		C1184.5,383.2,1184.4,383,1184.4,383z"/>
	<path fill="#605951" d="M1238.9,419.1c0,0,0.6-0.8,1.7-1.8c0.5-0.5,1.2-1,1.9-1.5c0.7-0.5,1.5-1.1,2.2-1.6c0.8-0.5,1.5-1,2.3-1.5
		c0.7-0.5,1.4-0.9,2-1.3c0.6-0.4,1.1-0.7,1.4-0.9c0.4-0.2,0.6-0.4,0.6-0.4s-0.1,0.2-0.3,0.6c-0.1,0.2-0.2,0.4-0.4,0.7
		c-0.2,0.3-0.3,0.5-0.6,0.8c-0.4,0.6-1,1.2-1.7,1.8c-0.3,0.3-0.7,0.6-1.1,0.9c-0.4,0.3-0.8,0.6-1.2,0.8c-0.8,0.5-1.6,1-2.4,1.4
		c-0.8,0.4-1.5,0.7-2.2,1C1239.9,418.8,1238.9,419.1,1238.9,419.1z"/>
	<path fill="#605951" d="M1211.6,396c0,0,0-0.2,0.1-0.5c0.1-0.3,0.3-0.8,0.6-1.2c0.3-0.5,0.8-1,1.4-1.4c0.6-0.4,1.2-0.8,1.8-1.1
		c1.3-0.6,2.6-1,3.6-1.2c0.5-0.1,0.9-0.2,1.3-0.3c0.3-0.1,0.5-0.1,0.5-0.1s-0.1,0.2-0.3,0.4c-0.2,0.3-0.5,0.6-0.9,1
		c-0.8,0.7-2.1,1.4-3.3,2c-0.6,0.3-1.2,0.6-1.8,0.8c-0.3,0.1-0.5,0.3-0.8,0.4c-0.2,0.1-0.5,0.2-0.7,0.4c-0.2,0.1-0.4,0.2-0.6,0.3
		c-0.2,0.1-0.3,0.2-0.5,0.3C1211.7,395.9,1211.6,396,1211.6,396z"/>
	<path fill="#605951" d="M1270.8,390.1c0,0,0.1-0.2,0.4-0.5c0.3-0.3,0.8-0.7,1.4-1c0.6-0.3,1.4-0.6,2.2-0.9c0.8-0.2,1.7-0.4,2.6-0.5
		c1.8-0.2,3.6-0.1,4.9,0.1c1.3,0.2,2.2,0.4,2.2,0.4s-0.9,0.4-2.2,0.7c-1.3,0.3-3,0.6-4.7,0.8c-1.7,0.2-3.4,0.3-4.7,0.5
		c-0.3,0-0.6,0.1-0.9,0.1c-0.2,0.1-0.5,0.1-0.7,0.1C1271,390.1,1270.8,390.1,1270.8,390.1z"/>
	<g>
		<path fill="#8F5C00" d="M1191.5,312.3c0,9.4,1.3,18.3,3.6,26.3c3.3,11.3,13.7,11.3,17,0c2.3-8.1,3.6-17,3.6-26.3
			c0-17.7-4.6-33.8-12.1-45.5C1196.1,278.5,1191.5,294.6,1191.5,312.3z"/>
		<path fill="#605951" d="M1203.6,349.6L1203.6,349.6c-4.9,0-9.1-3.9-10.9-10.3c-2.5-8.5-3.7-17.6-3.7-27c0-17.6,4.5-34.2,12.5-46.9
			c0.5-0.7,1.3-1.2,2.1-1.2s1.6,0.4,2.1,1.2c8.1,12.7,12.5,29.3,12.5,46.9c0,9.4-1.3,18.5-3.7,27
			C1212.7,345.7,1208.5,349.6,1203.6,349.6z M1203.6,271.7c-6.2,11.4-9.6,25.6-9.6,40.6c0,8.9,1.2,17.6,3.5,25.6
			c1.2,4.1,3.5,6.7,6.1,6.7s4.9-2.6,6.1-6.7c2.3-8.1,3.5-16.7,3.5-25.6C1213.3,297.3,1209.9,283.1,1203.6,271.7z"/>
	</g>
	<g>
		<path fill="#FFD9B3" d="M1247.1,307c0,0-45.8,6.7-42.4,22c3.4,15.3,40,3.8,40,3.8"/>
		<path fill="#605951" d="M1220.2,339.4c-4.8,0-9.3-0.7-12.6-2.6c-2.9-1.7-4.7-4.1-5.4-7.3c-0.6-2.8,0-5.5,1.7-8.1
			c8-11.5,39.3-16.4,42.8-16.9c1.4-0.2,2.6,0.7,2.8,2.1s-0.7,2.6-2.1,2.8c-9,1.3-33.7,6.6-39.4,14.8c-1,1.4-1.3,2.7-1,4.1
			c0.4,1.7,1.4,3.1,3,4c7.8,4.5,27,0,33.8-2.1c1.3-0.4,2.7,0.3,3.1,1.6c0.4,1.3-0.3,2.7-1.6,3.1
			C1244.6,335.4,1231.7,339.4,1220.2,339.4z"/>
	</g>
	<g>
		<path fill="#FFD9B3" d="M1160.2,311.6c0,0,45.4-3.5,44.7,12.2s-37.8,12.8-37.8,12.8"/>
		<path fill="#605951" d="M1173.6,339.3c-3.8,0-6.4-0.2-6.7-0.2c-1.4-0.1-2.4-1.3-2.3-2.7c0.1-1.4,1.3-2.4,2.7-2.3
			c6.8,0.5,25.8,0.5,32.7-5.6c1.5-1.4,2.3-3,2.4-4.8c0.1-1.5-0.5-2.7-1.6-3.8c-7-6.7-31.5-6.4-40.4-5.7c-1.4,0.1-2.6-0.9-2.7-2.3
			c-0.1-1.4,0.9-2.6,2.3-2.7c3.5-0.3,34.4-2.3,44.2,7.1c2.2,2.1,3.3,4.8,3.2,7.6c-0.1,3.2-1.5,6.1-4.1,8.4
			C1196.5,338.3,1182.1,339.3,1173.6,339.3z"/>
	</g>
	<g>
		<path fill="#605951" d="M1160.2,258.2c-0.2,0-0.5-0.1-0.7-0.2c-0.1,0-7.1-3.9-19.5-7.3c-11.4-3.2-29.8-6.6-52.5-5.2
			c-0.9,0-1.5-0.6-1.6-1.4c-0.1-0.8,0.6-1.5,1.4-1.6c44.4-2.8,73.3,12.7,73.6,12.9c0.7,0.4,1,1.3,0.6,2
			C1161.3,257.9,1160.8,258.2,1160.2,258.2z"/>
		<path fill="#605951" d="M1085,276.6c-0.6,0-1.1-0.3-1.4-0.9c-0.4-0.7,0-1.6,0.7-2c40.2-19.1,72.8-15.4,73.2-15.3
			c0.8,0.1,1.4,0.8,1.3,1.7c-0.1,0.8-0.9,1.4-1.7,1.3c-0.1,0-8.1-0.9-20.8,0.4c-11.8,1.3-30.1,4.9-50.7,14.6
			C1085.4,276.6,1085.2,276.6,1085,276.6z"/>
		<path fill="#605951" d="M1247,258.2c-0.5,0-1-0.3-1.3-0.8c-0.4-0.7-0.1-1.6,0.6-2c0.3-0.2,29.2-15.7,73.6-12.9
			c0.8,0.1,1.5,0.8,1.4,1.6c-0.1,0.8-0.7,1.4-1.6,1.4c-22.7-1.4-41.1,2-52.5,5.2c-12.4,3.4-19.4,7.3-19.5,7.3
			C1247.5,258.1,1247.3,258.2,1247,258.2z"/>
		<path fill="#605951" d="M1322.3,276.6c-0.2,0-0.4,0-0.6-0.1c-20.6-9.8-39-13.4-50.8-14.6c-12.7-1.4-20.6-0.4-20.7-0.4
			c-0.8,0.1-1.6-0.5-1.7-1.3c-0.1-0.8,0.5-1.6,1.3-1.7c0.3,0,32.9-3.7,73.2,15.3c0.7,0.4,1.1,1.2,0.7,2
			C1323.4,276.3,1322.8,276.6,1322.3,276.6z"/>
	</g>
</g>
<g>
	<g>
		<path fill="#FFCE6B" d="M341.4,808.5c0,0-23.3-73.1-5.7-107.9l7,10.7c0,0,20.1-50.5,36.1-57.2l4.2,9.8c0,0,22.3-23.6,61.4-27.2
			l-3.3,11.1c0,0,30.8-17,58.6-2.2l-7.6,5.3c0,0,20,1.2,38.4,21.4c0,0-25.6,19.1-40.7,18.7l4.5,10.8c0,0-31.9-6.2-55.1-1.2l5.2,8.8
			c0,0-29,2.8-38.2,11.2l4,7.2c0,0-2-1.1-20.5,24.6C371.2,778.3,341.4,808.5,341.4,808.5z"/>
		<path fill="#605951" d="M341.4,811c-0.2,0-0.4,0-0.6-0.1c-0.9-0.2-1.5-0.8-1.8-1.7c-0.1-0.2-5.9-18.7-9.5-41.3
			c-4.9-30.6-3.6-53.6,3.9-68.5c0.4-0.8,1.2-1.3,2.1-1.4c0.9-0.1,1.7,0.4,2.2,1.1l4.4,6.7c5.4-12.7,21.6-48.3,35.6-54.2
			c1.3-0.5,2.7,0.1,3.3,1.3l2.8,6.5c7.1-6.4,28-22.4,60.3-25.4c0.8-0.1,1.6,0.3,2.2,0.9c0.5,0.6,0.7,1.5,0.5,2.3l-1.7,5.8
			c10.2-4.3,33.7-11.6,55.8,0.2c0.8,0.4,1.3,1.2,1.3,2.1s-0.4,1.7-1.1,2.2l-2.7,1.9c7.6,1.9,21.1,7.1,33.8,21.1
			c0.5,0.5,0.7,1.2,0.6,1.9c-0.1,0.7-0.4,1.3-1,1.8c-1,0.7-22.8,16.9-38.5,19l3.2,7.6c0.4,0.8,0.2,1.8-0.4,2.5
			c-0.6,0.7-1.5,1.1-2.4,0.9c-0.3-0.1-28.6-5.4-50.6-1.8l3.4,5.7c0.4,0.7,0.5,1.6,0.1,2.4c-0.4,0.8-1.1,1.3-2,1.4
			c-7.3,0.7-27,3.7-35.2,9.3l3,5.3c0.5,1,0.4,2.2-0.4,3c-0.3,0.3-0.7,0.6-1.2,0.7c-0.9,0.6-5,4.1-19.1,23.6
			c-18.3,25.5-48.2,55.9-48.5,56.2C342.7,810.8,342,811,341.4,811z M336.1,705.9c-11.4,29.9,2.2,82.8,6.5,97.8
			c8-8.3,30.3-32,45-52.5c10.6-14.7,16.1-21.2,19.2-23.9l-2.9-5.2c-0.6-1-0.4-2.3,0.5-3.1c7.7-7,27.4-10.3,35.8-11.4l-3.2-5.5
			c-0.4-0.7-0.5-1.5-0.1-2.3c0.3-0.7,1-1.3,1.8-1.4c18.5-4,41.8-1.1,51.6,0.4l-2.8-6.6c-0.3-0.8-0.2-1.7,0.2-2.4s1.3-1.1,2.1-1.1
			c0.1,0,0.3,0,0.4,0c11.6,0,30-12.1,36.5-16.6c-16.9-17.3-34.5-18.5-34.7-18.5c-1.1-0.1-2-0.8-2.3-1.8s0.1-2.1,1-2.7l4.1-2.9
			c-25.2-10.7-52.1,3.8-52.4,4c-0.9,0.5-2,0.4-2.8-0.2c-0.8-0.6-1.1-1.7-0.8-2.7l2.2-7.5c-35.4,4.6-56,25.8-56.2,26
			c-0.6,0.6-1.4,0.9-2.3,0.7c-0.8-0.2-1.5-0.7-1.9-1.5l-3.1-7.3c-12.1,8.1-27.4,41.6-32.6,54.6c-0.3,0.9-1.1,1.5-2.1,1.6
			c-0.9,0.1-1.8-0.3-2.3-1.1L336.1,705.9z"/>
	</g>
	<path fill="#605951" d="M391.3,707.2c0,0-0.2,0.3-0.5,0.7c-0.3,0.4-0.8,1.1-1.4,1.8c-1.2,1.4-3,3.1-4.8,4.8
		c-1.8,1.7-3.5,3.4-4.7,4.8c-0.6,0.7-1.1,1.3-1.4,1.7c-0.3,0.4-0.5,0.7-0.5,0.7s0.1-0.3,0.4-0.8c0.1-0.2,0.3-0.5,0.5-0.9
		c0.2-0.3,0.4-0.7,0.7-1.1c0.5-0.8,1.2-1.6,2-2.5c0.8-0.9,1.6-1.8,2.5-2.6c1.8-1.7,3.7-3.3,5-4.5c0.7-0.6,1.3-1.1,1.7-1.5
		C391.1,707.4,391.3,707.2,391.3,707.2z"/>
	<path fill="#605951" d="M422.4,676.8c0,0-0.7,0.3-1.7,0.9c-1,0.5-2.2,1.2-3.5,2c-1.3,0.7-2.5,1.5-3.5,2c-1,0.5-1.7,0.8-1.7,0.8
		s0.5-0.5,1.4-1.2c0.9-0.7,2.1-1.6,3.3-2.4c0.7-0.4,1.3-0.7,2-1c0.7-0.3,1.3-0.5,1.8-0.6C421.6,676.8,422.4,676.8,422.4,676.8z"/>
	<path fill="#605951" d="M462.3,672.4c0,0-0.5,0.3-1.4,0.6c-0.8,0.3-2,0.7-3.1,0.9c-1.2,0.2-2.4,0.2-3.3,0.1
		c-0.9-0.1-1.5-0.4-1.5-0.4s0.2,0,0.4-0.1c0.3,0,0.6-0.1,1.1-0.1c0.9-0.1,2-0.3,3.1-0.5c1.1-0.2,2.3-0.4,3.2-0.5
		C461.7,672.4,462.3,672.4,462.3,672.4z"/>
	<path fill="#605951" d="M472,686.1c0,0-0.5,0.3-1.2,0.6c-0.7,0.3-1.7,0.6-2.7,0.8c-0.5,0.1-1,0.1-1.5,0.1c-0.5,0-0.9,0-1.3-0.1
		c-0.8-0.1-1.3-0.4-1.3-0.4s0.5-0.1,1.3-0.2c0.7-0.1,1.7-0.3,2.7-0.5c1-0.2,2-0.3,2.7-0.4C471.5,686,472,686.1,472,686.1z"/>
	<path fill="#605951" d="M474.3,651.5c0,0-0.2,0.1-0.7,0.2c-0.4,0.1-1,0.4-1.7,0.6c-1.4,0.5-3.4,1.1-5.4,1.5c-1,0.2-2,0.3-3,0.4
		c-1,0-1.9,0-2.6-0.1c-0.4,0-0.7-0.1-1-0.2c-0.3-0.1-0.6-0.1-0.8-0.2c-0.4-0.1-0.7-0.2-0.7-0.2s0.3,0,0.7,0c0.4,0,1.1,0,1.8,0
		c0.7,0,1.6-0.1,2.5-0.2c0.9-0.1,1.9-0.3,2.9-0.5c1-0.2,2-0.4,2.9-0.6c0.9-0.2,1.8-0.4,2.6-0.5C473.2,651.6,474.3,651.5,474.3,651.5
		z"/>
	<path fill="#605951" d="M400.1,661.7c0,0-0.4,0.7-1.1,1.6c-0.7,0.9-1.7,2.1-2.8,3.2c-0.3,0.3-0.6,0.5-0.9,0.8
		c-0.3,0.3-0.6,0.5-0.9,0.7c-0.6,0.4-1.2,0.8-1.7,1c-0.5,0.3-1,0.4-1.3,0.6c-0.3,0.1-0.5,0.2-0.5,0.2s0.6-0.5,1.5-1.2
		c0.9-0.7,2-1.7,3.1-2.8c1.1-1,2.2-2.1,3.1-2.9C399.5,662.2,400.1,661.7,400.1,661.7z"/>
	<path fill="#605951" d="M366.3,698.2c0,0-0.1,0.7-0.6,1.6c-0.4,0.9-1.2,2.1-2.1,3.2c-0.9,1.1-1.8,2.1-2.5,2.8
		c-0.7,0.7-1.2,1.2-1.2,1.2s0.2-0.7,0.7-1.6c0.5-0.9,1.3-2,2.1-3.1c0.9-1,1.7-2.1,2.4-2.9C365.8,698.7,366.3,698.2,366.3,698.2z"/>
	<g>
		<path fill="#FFCE6B" d="M219.8,684c0,0-31.8-36.6-21.5-71.8c7.4-25.5,21.5-32.2,31-28.2c21.3,9,25.5,46.6,25.5,46.6"/>
		<path fill="#605951" d="M219.8,686.5c-0.7,0-1.4-0.3-1.9-0.9c-1.3-1.5-32.5-38-22-74.1c4.3-14.7,11.4-25.1,20.1-29.2
			c4.8-2.3,9.9-2.5,14.3-0.6c9.5,4,17,13.5,22.1,28.2c3.8,10.7,4.8,20.1,4.9,20.5c0.2,1.4-0.8,2.6-2.2,2.8c-1.4,0.2-2.6-0.8-2.8-2.2
			c0-0.4-4.2-36.2-23.9-44.6c-3.2-1.3-6.7-1.2-10.2,0.5c-4.2,2-12.1,8.1-17.4,26.1c-9.8,33.4,20.6,69.1,21,69.4
			c0.9,1,0.8,2.6-0.3,3.5C221,686.3,220.4,686.5,219.8,686.5z"/>
	</g>
	<g>
		<path fill="#FFCE6B" d="M346.1,684c0,0,31.8-36.6,21.5-71.8c-7.4-25.5-21.5-32.2-31-28.2c-21.3,9-28.1,47.5-28.1,47.5"/>
		<path fill="#605951" d="M346.1,686.5c-0.6,0-1.2-0.2-1.6-0.6c-1-0.9-1.2-2.5-0.3-3.5c0.3-0.4,30.7-36,21-69.4
			c-5.3-18-13.2-24.1-17.4-26.1c-3.5-1.7-7.1-1.9-10.2-0.5c-19.8,8.4-26.6,45.3-26.7,45.7c-0.2,1.4-1.5,2.3-2.9,2
			c-1.4-0.2-2.3-1.5-2-2.9c0.3-1.6,7.3-39.9,29.6-49.4c4.4-1.9,9.5-1.7,14.3,0.6c8.6,4.1,15.8,14.5,20.1,29.2
			c10.6,36.1-20.6,72.6-22,74.1C347.5,686.2,346.8,686.5,346.1,686.5z"/>
	</g>
	<g>
		<path fill="#F7BEAF" d="M241.2,644.4c0,0-10-8.7-10.2-29.2s-7.1-19-12.2-17.3c-4.5,1.6-17.5,14.7-13,41.6s16.4,37.8,16.4,37.8"/>
		<path fill="#605951" d="M222.1,678.9c-0.4,0-0.8-0.1-1.1-0.4c-0.5-0.5-12.4-11.6-16.8-38.7c-4.5-27.4,8.9-41.5,14.1-43.3
			c2-0.7,5.9-2,9,0.2c3.5,2.5,5.2,8.3,5.3,18.5c0.2,19.6,9.6,28,9.7,28.1c0.7,0.6,0.7,1.6,0.2,2.2c-0.6,0.7-1.6,0.7-2.2,0.2
			c-0.4-0.4-10.5-9.4-10.7-30.4c-0.1-11-2.2-14.8-3.9-16c-1.5-1.1-3.5-0.7-6.2,0.2c-3.9,1.3-16.2,14.2-12,39.8
			c4.3,26,15.7,36.8,15.9,36.9c0.6,0.6,0.7,1.6,0.1,2.2C223,678.7,222.5,678.9,222.1,678.9z"/>
	</g>
	<g>
		<path fill="#F7BEAF" d="M323.2,646.6c0,0,11.5-10.9,11.7-31.4s7.1-19,12.2-17.3c4.5,1.6,17.5,14.7,13,41.6s-18,38.9-18,38.9"/>
		<path fill="#605951" d="M342.1,680c-0.4,0-0.9-0.2-1.2-0.5c-0.6-0.7-0.5-1.7,0.1-2.2c0.1-0.1,13.3-12.1,17.5-38
			c4.2-25.7-8.1-38.5-12-39.8c-2.7-0.9-4.6-1.3-6.2-0.2c-1.7,1.2-3.8,5-3.9,16c-0.2,21-11.7,32.1-12.2,32.6
			c-0.6,0.6-1.6,0.6-2.2-0.1c-0.6-0.6-0.6-1.6,0.1-2.2c0.1-0.1,11-10.8,11.2-30.3c0.1-10.2,1.8-16.1,5.3-18.5c3.2-2.2,7-0.9,9-0.2
			c5.1,1.8,18.6,15.9,14.1,43.3c-4.5,27.1-18,39.3-18.5,39.8C342.8,679.8,342.5,680,342.1,680z"/>
	</g>
	<path fill="#605951" d="M224,658.9c-0.3,0-0.6-0.1-0.9-0.3c-0.6-0.4-0.8-1.2-0.5-1.9l5.6-12.4l-11-2.1c-0.7-0.1-1.2-0.7-1.3-1.4
		c-0.1-0.7,0.3-1.4,1-1.6l9.6-3.9c-4.1-5.3-4.9-9.9-5-10.1c-0.1-0.6,0.1-1.2,0.6-1.5c0.5-0.4,1.1-0.4,1.6-0.2l9.6,4.7
		c0.8,0.4,1.1,1.3,0.7,2.1c-0.4,0.8-1.3,1.1-2.1,0.7l-6.2-3c0.8,1.9,2.2,4.4,4.5,6.9c0.3,0.4,0.5,0.9,0.4,1.4
		c-0.1,0.5-0.5,0.9-0.9,1.1l-6.7,2.7l7.8,1.5c0.5,0.1,0.9,0.4,1.1,0.8c0.2,0.4,0.2,0.9,0,1.4l-3.5,7.8c2.2-1.7,4.7-3.3,6.4-3.5
		c0.9-0.1,1.7,0.5,1.8,1.3c0.1,0.9-0.5,1.7-1.3,1.8c-1.9,0.3-7.1,4.4-10.1,7.3C224.8,658.8,224.4,658.9,224,658.9z"/>
	<path fill="#605951" d="M341.9,658.9c-0.4,0-0.8-0.1-1.1-0.4c-3.1-2.9-8.2-7-10.1-7.3c-0.9-0.1-1.5-0.9-1.3-1.8
		c0.1-0.9,0.9-1.5,1.8-1.3c1.7,0.2,4.1,1.8,6.4,3.5l-3.5-7.8c-0.2-0.4-0.2-0.9,0-1.4c0.2-0.4,0.6-0.7,1.1-0.8l7.8-1.5l-6.7-2.7
		c-0.5-0.2-0.8-0.6-0.9-1.1c-0.1-0.5,0-1,0.4-1.4c2.3-2.5,3.7-5,4.5-6.9l-6.2,3c-0.8,0.4-1.7,0.1-2.1-0.7c-0.4-0.8-0.1-1.7,0.7-2.1
		l9.6-4.7c0.5-0.3,1.2-0.2,1.6,0.2c0.5,0.4,0.7,1,0.6,1.5c0,0.2-0.9,4.8-5,10.1l9.6,3.9c0.6,0.3,1,0.9,1,1.6
		c-0.1,0.7-0.6,1.3-1.3,1.4l-11,2.1l5.6,12.4c0.3,0.7,0.1,1.5-0.5,1.9C342.5,658.8,342.2,658.9,341.9,658.9z"/>
	<g>
		<path fill="#FFCE6B" d="M344.3,855.7c25.2-9.7,42.4-27.4,46.4-55.8c8.7-61-21.5-128.1-63.8-166.3c-24.7-22.3-67.8-22.3-92.4,0
			c-18.1,16.4-36.6,36.3-50.8,77.7c-20.9,61-18.2,125.9,35.8,146c-10.9,1.7,20.3,8.3,25.6,5.7c30,3.5,58.3,3.3,81.9-2
			C332.2,863.6,355.8,856.6,344.3,855.7z"/>
		<path fill="#605951" d="M283.3,867.7c-11.8,0-24.5-0.8-38-2.3c-6.4,2-25.9-1.9-29.4-4.7c-1.2-1-1.3-2.1-1.3-2.8
			c-53.9-23.2-52.8-90.9-33.4-147.6c14.7-43,34.3-63.2,51.5-78.7c25.5-23.1,70.3-23.1,95.8,0c21.5,19.5,39.9,46.3,51.6,75.6
			c12.6,31.4,17.1,63.6,12.9,93c-3.7,26-18.3,44.8-43.4,55.9c0.2,0.7,0.2,2-1.2,3.3c-2.5,2.1-9.4,3.6-10.7,3.8
			c-3.5,0.7-8.2,1.2-11.2,0.3C313.9,866.3,299.4,867.7,283.3,867.7z M245,860.3c0.1,0,0.2,0,0.3,0c31.7,3.7,59,3,81.1-1.9
			c0.6-0.1,1.2-0.1,1.7,0.2c0.8,0.4,3.8,0.6,8.9-0.4c2.1-0.4,3.8-0.9,5.1-1.3c-0.2-0.3-0.3-0.6-0.3-0.9c-0.2-1.2,0.5-2.3,1.6-2.7
			c26.1-10.1,41.2-28.2,44.9-53.8c4.1-28.5-0.3-59.8-12.6-90.4c-11.5-28.6-29.4-54.7-50.3-73.7c-23.7-21.5-65.4-21.5-89.1,0
			c-16.7,15.1-35.8,34.8-50.2,76.6c-19.1,55.7-20.2,122.5,34.3,142.8c1.1,0.4,1.7,1.5,1.6,2.6c0,0.2-0.1,0.4-0.1,0.5
			c2.2,0.7,5.5,1.5,9.5,2.1c7.5,1.2,11.7,1,12.6,0.5C244.3,860.4,244.7,860.3,245,860.3z"/>
	</g>
	<circle fill="#605951" cx="243" cy="699.6" r="14.2"/>
	<circle fill="#FFFFFF" cx="243" cy="695.3" r="8.8"/>
	<circle fill="#FFFFFF" cx="232.6" cy="706.9" r="3.8"/>
	<circle fill="#FFFFFF" cx="245.7" cy="709.1" r="2"/>
	<circle fill="#605951" cx="310.7" cy="699.6" r="14.2"/>
	<circle fill="#FFFFFF" cx="310.7" cy="695.3" r="8.8"/>
	<circle fill="#FFFFFF" cx="300.3" cy="706.9" r="3.8"/>
	<circle fill="#FFFFFF" cx="313.5" cy="709.1" r="2"/>
	<path fill="#605951" d="M263.4,737.2c-0.2,0-0.4,0-0.6,0c-8-0.4-13-9-13.2-9.4c-0.7-1.2-0.3-2.7,0.9-3.4c1.2-0.7,2.7-0.3,3.4,0.9
		c0,0.1,3.9,6.7,9.2,6.9c3.3,0.1,6.7-2.2,10.1-7.1c0.8-1.1,2.4-1.4,3.5-0.6c1.1,0.8,1.4,2.4,0.6,3.5
		C272.9,734.1,268.3,737.2,263.4,737.2z"/>
	<path fill="#605951" d="M287.1,737.2c-4.9,0-9.6-3.1-13.9-9.2c-0.8-1.1-0.5-2.7,0.6-3.5c1.1-0.8,2.7-0.5,3.5,0.6
		c3.4,4.9,6.9,7.3,10.1,7.1c5.2-0.3,9.1-6.8,9.1-6.9c0.7-1.2,2.2-1.6,3.4-0.9c1.2,0.7,1.6,2.2,0.9,3.4c-0.2,0.4-5.2,9-13.2,9.4
		C287.5,737.2,287.3,737.2,287.1,737.2z"/>
	<path fill="#605951" d="M350.5,756.5c-0.5,0-1.1-0.2-1.5-0.5c-1.1-0.8-1.3-2.4-0.4-3.5c17.5-22.5,0.1-47.6-0.1-47.9
		c-0.8-1.1-0.5-2.7,0.6-3.5c1.1-0.8,2.7-0.5,3.5,0.6c0.2,0.3,19.6,28.5-0.1,53.8C352,756.2,351.3,756.5,350.5,756.5z"/>
	<path fill="#605951" d="M209.1,756.5c-0.7,0-1.5-0.3-2-1c-19.7-25.4-0.3-53.6-0.1-53.8c0.8-1.1,2.4-1.4,3.5-0.6
		c1.1,0.8,1.4,2.4,0.6,3.5c-0.7,1.1-17.5,25.5-0.1,47.9c0.8,1.1,0.6,2.7-0.4,3.5C210.2,756.3,209.7,756.5,209.1,756.5z"/>
	<path fill="#605951" d="M191.2,741c0,0,0.2,0.8,0.2,1.9c0,1.1-0.2,2.6-0.5,4c-0.3,1.4-0.8,2.8-1.3,3.8c-0.4,1-0.9,1.7-0.9,1.7
		s-0.2-0.8-0.2-1.9c-0.1-1.1,0.1-2.6,0.4-4.1c0.3-1.4,0.8-2.8,1.3-3.8C190.7,741.7,191.2,741,191.2,741z"/>
	<path fill="#605951" d="M209.2,814.5c0,0,0.1,0.2,0.2,0.6c0.1,0.4,0.2,0.9,0.4,1.6c0.3,1.3,0.9,2.9,1.4,4.6
		c0.5,1.7,1.1,3.4,1.3,4.8c0.3,1.4,0.2,2.3,0.2,2.3s-0.6-0.7-1.3-1.9c-0.7-1.2-1.6-2.8-2.1-4.6c-0.3-0.9-0.5-1.8-0.6-2.7
		c-0.1-0.9-0.1-1.7,0-2.4c0-0.4,0.1-0.7,0.2-1c0.1-0.3,0.1-0.5,0.2-0.7C209.1,814.7,209.2,814.5,209.2,814.5z"/>
	<path fill="#605951" d="M239.7,786c0,0,0.4,0.4,0.6,1.2c0.3,0.8,0.4,1.8,0.2,2.9c-0.2,1-0.7,2-1.3,2.6c-0.5,0.6-1.1,0.8-1.1,0.8
		s0-0.2,0-0.4c0-0.2,0-0.6,0.1-0.9c0-0.7,0.2-1.6,0.3-2.5c0.2-0.9,0.4-1.8,0.6-2.5c0.1-0.4,0.2-0.6,0.3-0.9
		C239.6,786.1,239.7,786,239.7,786z"/>
	<path fill="#605951" d="M293.7,805c0,0,0.4,0.9,0.6,2.2c0.3,1.3,0.4,3.2,0.2,5c-0.1,0.9-0.3,1.8-0.5,2.7c-0.2,0.8-0.5,1.6-0.9,2.2
		c-0.3,0.6-0.7,1.1-1,1.4c-0.3,0.3-0.5,0.5-0.5,0.5s0-0.2,0.1-0.6c0.1-0.4,0.1-0.9,0.2-1.6c0.1-0.3,0.1-0.7,0.1-1
		c0-0.4,0.1-0.8,0.1-1.2c0.1-0.8,0.2-1.7,0.3-2.5c0.2-1.7,0.4-3.5,0.6-4.8C293.4,805.9,293.7,805,293.7,805z"/>
	<path fill="#605951" d="M232.4,666c0,0,0.1,0.3,0.2,0.9c0.1,0.5,0.2,1.2,0.1,1.9c-0.1,0.7-0.3,1.4-0.5,1.9
		c-0.3,0.5-0.6,0.7-0.6,0.7s0-0.1,0-0.2c0-0.1,0.1-0.4,0.1-0.6c0.1-0.5,0.1-1.2,0.2-1.8c0.1-0.7,0.1-1.3,0.2-1.9
		C232.3,666.4,232.4,666,232.4,666z"/>
	<path fill="#605951" d="M276.2,666.8c0,0,0.4,0.9,0.6,2.2c0.3,1.3,0.4,3.2,0.2,5c-0.1,0.9-0.3,1.8-0.5,2.7
		c-0.2,0.8-0.5,1.6-0.9,2.2c-0.3,0.6-0.7,1.1-1,1.4c-0.3,0.3-0.5,0.5-0.5,0.5s0-0.2,0.1-0.6c0.1-0.4,0.1-0.9,0.2-1.6
		c0.1-0.3,0.1-0.7,0.1-1c0-0.4,0.1-0.8,0.1-1.2c0.1-0.8,0.2-1.7,0.3-2.5c0.2-1.7,0.4-3.5,0.6-4.8
		C275.9,667.7,276.2,666.8,276.2,666.8z"/>
	<path fill="#605951" d="M328.5,663.1c0,0,0.9,0.4,2,1.1c1.1,0.8,2.5,2,3.7,3.4c0.6,0.7,1.1,1.5,1.5,2.2c0.4,0.8,0.7,1.5,0.9,2.2
		c0.2,0.7,0.3,1.3,0.3,1.7c0,0.4,0,0.6,0,0.6s-0.2-0.2-0.4-0.5c-0.2-0.3-0.6-0.8-1-1.3c-0.2-0.3-0.4-0.5-0.7-0.8
		c-0.2-0.3-0.5-0.6-0.7-0.9c-0.5-0.6-1.1-1.3-1.6-2c-1.1-1.3-2.2-2.7-3-3.8C328.9,664,328.5,663.1,328.5,663.1z"/>
	<path fill="#605951" d="M332.7,753.5c0,0,0.4,0.4,0.6,1.2c0.3,0.7,0.4,1.7,0.3,2.7c-0.1,1-0.4,1.9-0.7,2.5
		c-0.3,0.7-0.7,1.1-0.7,1.1s-0.3-0.5-0.5-1.2c-0.2-0.7-0.2-1.7-0.2-2.6c0.1-0.9,0.3-1.8,0.6-2.5C332.4,754,332.7,753.5,332.7,753.5z
		"/>
	<path fill="#605951" d="M367.7,732c0,0,0.1,0.1,0.3,0.3c0.2,0.2,0.4,0.4,0.6,0.8c0.4,0.7,0.7,1.7,0.7,2.7c0,1-0.2,1.9-0.4,2.6
		c-0.2,0.7-0.6,1.2-0.6,1.2s-0.3-0.5-0.6-1.2c-0.3-0.7-0.4-1.7-0.4-2.6c0-0.9,0.1-1.8,0.2-2.5c0.1-0.4,0.1-0.6,0.2-0.9
		C367.7,732.1,367.7,732,367.7,732z"/>
	<path fill="#605951" d="M288.7,642c0,0,0.5,0,1,0.2c0.6,0.2,1.2,0.7,1.6,1.3c0.4,0.6,0.6,1.4,0.6,2c0,0.6-0.2,1-0.2,1
		s-0.4-0.2-0.8-0.6c-0.4-0.3-0.9-0.8-1.2-1.3c-0.3-0.5-0.6-1.1-0.8-1.6c-0.1-0.3-0.1-0.5-0.2-0.7C288.7,642.1,288.7,642,288.7,642z"
		/>
	<path fill="#605951" d="M320.2,640.5c0,0,0.4,0.4,0.7,0.9c0.4,0.5,0.7,1.2,0.9,1.9c0.2,0.7,0.4,1.4,0.4,2.1c0,0.6,0,1.1,0,1.1
		s-0.5-0.2-1-0.6c-0.5-0.4-1-1.1-1.3-2c-0.3-0.8-0.3-1.7-0.2-2.3C319.9,640.9,320.2,640.5,320.2,640.5z"/>
	<path fill="#605951" d="M260.2,633c0,0,0,0.1-0.1,0.3c-0.1,0.2-0.2,0.5-0.4,0.7c-0.3,0.6-0.8,1.2-1.3,1.8c-0.6,0.6-1.3,1.1-2,1.3
		c-0.6,0.3-1.2,0.2-1.2,0.2s0.1-0.5,0.4-1.1c0.3-0.6,0.7-1.3,1.3-1.9c0.6-0.6,1.4-1.1,2-1.3C259.7,633,260.2,633,260.2,633z"/>
	<path fill="#605951" d="M226.7,747.5c0,0,0.3,0.3,0.6,0.8c0.3,0.5,0.4,1.1,0.4,1.7c0,0.6-0.2,1.2-0.4,1.7c-0.2,0.5-0.6,0.8-0.6,0.8
		s-0.3-0.3-0.6-0.8c-0.3-0.5-0.4-1.1-0.4-1.7c0-0.6,0.2-1.2,0.4-1.7C226.4,747.8,226.7,747.5,226.7,747.5z"/>
	<path fill="#605951" d="M361.2,816c0,0,0,0.9-0.3,2.3c-0.3,1.4-1,3.1-2,4.6c-1,1.6-2.2,2.9-3.3,3.8c-1.1,0.9-1.9,1.3-1.9,1.3
		s0.1-0.2,0.3-0.6c0.2-0.4,0.4-0.9,0.8-1.4c0.7-1.2,1.6-2.6,2.5-4.1c0.9-1.5,1.8-2.9,2.6-4c0.4-0.6,0.7-1,0.9-1.3
		C361.1,816.2,361.2,816,361.2,816z"/>
	<path fill="#605951" d="M345.8,802.5c0,0,0,0.9-0.3,2.3c-0.3,1.4-1,3.1-2,4.6c-1,1.6-2.2,2.9-3.3,3.8c-1.1,0.9-1.9,1.3-1.9,1.3
		s0.1-0.2,0.3-0.6c0.2-0.4,0.4-0.9,0.8-1.4c0.7-1.2,1.6-2.6,2.5-4.1c0.9-1.5,1.8-2.9,2.6-4c0.4-0.6,0.7-1,0.9-1.3
		C345.7,802.7,345.8,802.5,345.8,802.5z"/>
	<path fill="#605951" d="M308.2,847c0,0,0,0.6-0.3,1.3c-0.3,0.7-0.8,1.5-1.5,2.2c-0.7,0.7-1.6,1.2-2.3,1.3c-0.7,0.2-1.3,0.2-1.3,0.2
		s0.2-0.5,0.6-1.1c0.4-0.6,1-1.3,1.6-1.9c0.7-0.6,1.4-1.1,2-1.5C307.7,847.2,308.2,847,308.2,847z"/>
	<g>
		<path fill="#FFCE6B" d="M246.4,848.7c0,0,16.7,43.2,30.9,36.5c14.2-6.7-5.2-39.8-5.2-39.8"/>
		<path fill="#605951" d="M274.1,888.4c-1.3,0-2.7-0.3-4.1-0.8c-13-5.2-24.7-34.6-26-38c-0.5-1.3,0.1-2.7,1.4-3.2
			c1.3-0.5,2.7,0.1,3.2,1.4c3.3,8.5,13.9,31.4,23.2,35.1c1.6,0.6,2.9,0.6,4.3,0c1.6-0.8,2.7-2,3.2-3.9c2.7-8.6-6-26.4-9.5-32.5
			c-0.7-1.2-0.3-2.7,0.9-3.4c1.2-0.7,2.7-0.3,3.4,0.9c0.6,1,13.9,24,10,36.5c-1,3.2-3,5.5-5.9,6.9
			C277,888.1,275.6,888.4,274.1,888.4z"/>
	</g>
	<g>
		<path fill="#FFCE6B" d="M325.6,848.7c0,0-14.4,43.2-28.5,36.5c-14.2-6.7,2.8-39.8,2.8-39.8"/>
		<path fill="#605951" d="M300.1,888.4c-1.4,0-2.8-0.3-4.1-0.9c-2.9-1.4-5-3.7-6.1-7c-4.3-12.5,7.3-35.3,7.8-36.2
			c0.6-1.2,2.1-1.7,3.4-1.1c1.2,0.6,1.7,2.1,1.1,3.4c-3.1,6-10.5,23.6-7.5,32.3c0.7,2,1.8,3.3,3.5,4.1c1.3,0.6,2.6,0.6,4.2,0
			c8.9-3.8,18.1-26.6,20.9-35c0.4-1.3,1.9-2,3.2-1.6c1.3,0.4,2,1.9,1.6,3.2c-1.1,3.3-11.2,32.6-23.7,38
			C302.9,888.1,301.5,888.4,300.1,888.4z"/>
	</g>
	<g>
		<path fill="#605951" d="M239,725.3c-0.2,0-0.5-0.1-0.7-0.2c-0.1,0-7.1-3.9-19.5-7.3c-11.4-3.2-29.8-6.6-52.5-5.2
			c-0.8,0-1.5-0.6-1.6-1.4c-0.1-0.8,0.6-1.5,1.4-1.6c44.4-2.8,73.3,12.7,73.6,12.9c0.7,0.4,1,1.3,0.6,2
			C240.1,725.1,239.5,725.3,239,725.3z"/>
		<path fill="#605951" d="M163.8,743.8c-0.6,0-1.1-0.3-1.4-0.9c-0.4-0.7,0-1.6,0.7-2c40.2-19.1,72.8-15.4,73.2-15.3
			c0.8,0.1,1.4,0.8,1.3,1.7c-0.1,0.8-0.8,1.4-1.7,1.3c-0.1,0-8.1-0.9-20.8,0.4c-11.8,1.3-30.1,4.9-50.7,14.6
			C164.2,743.7,164,743.8,163.8,743.8z"/>
		<path fill="#605951" d="M325.8,725.3c-0.5,0-1-0.3-1.3-0.8c-0.4-0.7-0.1-1.6,0.6-2c0.3-0.2,29.2-15.7,73.6-12.9
			c0.8,0.1,1.5,0.8,1.4,1.6c-0.1,0.8-0.8,1.5-1.6,1.4c-22.7-1.4-41.1,2-52.5,5.2c-12.4,3.4-19.4,7.3-19.5,7.3
			C326.3,725.3,326,725.3,325.8,725.3z"/>
		<path fill="#605951" d="M401.1,743.8c-0.2,0-0.4,0-0.6-0.1c-20.6-9.8-38.9-13.3-50.7-14.6c-12.8-1.4-20.8-0.5-20.8-0.4
			c-0.8,0.1-1.6-0.5-1.7-1.3c-0.1-0.8,0.5-1.6,1.3-1.7c0.3,0,32.9-3.7,73.2,15.3c0.7,0.4,1.1,1.2,0.7,2
			C402.1,743.5,401.6,743.8,401.1,743.8z"/>
	</g>
</g>
<g>
	<g>
		<path fill="#626171" d="M630.5,743c0,0-50.3-58-34-113.7c11.8-40.3,34.1-51,49.1-44.7c33.8,14.3,40.3,73.8,40.3,73.8"/>
		<path fill="#2D2A28" d="M628.7,744.7c-0.5-0.6-12.9-15-23.5-36.5c-14.1-28.6-17.9-56.2-11-79.5c6.7-22.9,17.7-39,31-45.3
			c7.2-3.4,14.8-3.8,21.5-0.9c14.5,6.1,26.3,21.3,34.2,43.8c5.9,16.7,7.6,31.5,7.6,32.1l-5,0.5c-0.1-0.6-6.8-58.2-38.8-71.8
			c-5.4-2.3-11.4-2-17.4,0.8c-12,5.7-22.1,20.7-28.4,42.2c-15.7,53.8,33,110.8,33.5,111.3L628.7,744.7z"/>
	</g>
	<g>
		<path fill="#626171" d="M830.6,743c0,0,50.3-58,34-113.7c-11.8-40.3-34.1-51-49.1-44.7C781.7,599,770.9,660,770.9,660"/>
		<path fill="#2D2A28" d="M832.5,744.7l-3.8-3.3c0.5-0.6,49.2-57.6,33.5-111.4c-6.3-21.5-16.4-36.5-28.4-42.2
			c-6-2.8-12-3.1-17.4-0.8c-32.1,13.6-43,72.8-43.1,73.4l-4.9-0.9c0.1-0.6,2.8-15.7,9.8-32.8c9.4-23.2,21.7-38.2,36.3-44.4
			c6.6-2.8,14.3-2.5,21.5,0.9c13.3,6.3,24.3,22.4,31,45.3c6.8,23.4,3,50.9-11,79.5C845.4,729.7,833,744.1,832.5,744.7z"/>
	</g>
	<g>
		<path fill="#F7BEAF" d="M664.5,680.3c0,0-15.8-13.8-16.2-46.3s-11.2-30.1-19.3-27.3c-7.1,2.5-27.7,23.3-20.7,65.8
			s25.9,59.8,25.9,59.8"/>
		<path fill="#2D2A28" d="M634.2,734.9c-0.6,0-1.2-0.2-1.7-0.7c-0.8-0.7-19.6-18.4-26.7-61.3c-3.9-23.6,0.7-39.9,5.3-49.4
			c5.2-10.9,12.5-17.6,17.1-19.2c3.2-1.1,9.3-3.2,14.3,0.3c5.5,3.9,8.2,13.2,8.3,29.3c0.3,31,15.1,44.3,15.3,44.5
			c1,0.9,1.1,2.5,0.2,3.5c-0.9,1-2.5,1.1-3.5,0.2c-0.7-0.6-16.7-14.9-17-48.2c-0.2-17.4-3.5-23.4-6.2-25.3c-2.4-1.7-5.6-1.2-9.8,0.3
			c-6.1,2.1-25.7,22.4-19,63.1c6.8,41.2,24.9,58.2,25.1,58.4c1,0.9,1.1,2.5,0.2,3.5C635.6,734.6,634.9,734.9,634.2,734.9z"/>
	</g>
	<g>
		<path fill="#F7BEAF" d="M794.3,683.8c0,0,18.2-17.3,18.5-49.8s11.2-30.1,19.3-27.3c7.1,2.5,27.7,23.3,20.7,65.8
			s-28.5,61.6-28.5,61.6"/>
		<path fill="#2D2A28" d="M824.2,736.6c-0.7,0-1.4-0.3-1.9-0.8c-0.9-1-0.8-2.6,0.2-3.5c0.2-0.2,21-19.1,27.7-60.1
			c6.7-40.6-12.9-60.9-19-63.1c-4.2-1.5-7.4-2-9.8-0.3c-2.7,1.9-6,7.9-6.2,25.3c-0.3,33.2-18.5,50.8-19.3,51.5c-1,1-2.6,0.9-3.5-0.1
			c-0.9-1-0.9-2.6,0.1-3.5c0,0,4.4-4.3,8.8-12.3c4-7.4,8.8-19.5,9-35.7c0.2-16.1,2.8-25.4,8.3-29.3c5-3.5,11.1-1.5,14.3-0.3
			c4.6,1.6,11.9,8.3,17.1,19.2c4.5,9.5,9.1,25.9,5.3,49.4c-7.1,42.9-28.4,62.3-29.4,63.1C825.4,736.4,824.8,736.6,824.2,736.6z"/>
	</g>
	<path fill="#2D2A28" d="M637.2,703.3c-0.5,0-1-0.2-1.5-0.5c-1-0.7-1.3-2-0.8-3.1l8.9-19.6l-17.4-3.4c-1.1-0.2-1.9-1.1-2-2.2
		c-0.1-1.1,0.5-2.1,1.5-2.6l15.1-6.2c-6.5-8.4-7.8-15.7-7.9-16c-0.2-0.9,0.2-1.9,1-2.4c0.8-0.6,1.8-0.7,2.6-0.2l15.2,7.4
		c1.2,0.6,1.8,2.1,1.2,3.3c-0.6,1.2-2.1,1.8-3.3,1.2l-9.9-4.8c1.3,3,3.5,6.9,7.1,11c0.5,0.6,0.7,1.4,0.6,2.2
		c-0.2,0.8-0.7,1.4-1.5,1.7l-10.6,4.3l12.3,2.4c0.8,0.1,1.4,0.6,1.7,1.3c0.4,0.7,0.4,1.5,0.1,2.2l-5.6,12.3
		c3.5-2.7,7.4-5.2,10.1-5.5c1.4-0.2,2.6,0.7,2.8,2.1c0.2,1.4-0.7,2.6-2.1,2.8c-3,0.4-11.2,7-16,11.6
		C638.4,703,637.8,703.3,637.2,703.3z"/>
	<path fill="#2D2A28" d="M823.9,703.3c-0.6,0-1.2-0.2-1.7-0.7c-4.8-4.5-13-11.1-16-11.6c-1.4-0.2-2.3-1.5-2.1-2.8
		c0.2-1.4,1.5-2.3,2.8-2.1c2.7,0.4,6.5,2.9,10.1,5.5l-5.6-12.3c-0.3-0.7-0.3-1.5,0.1-2.2c0.3-0.7,1-1.2,1.7-1.3l12.3-2.4l-10.6-4.3
		c-0.8-0.3-1.3-1-1.5-1.7c-0.2-0.8,0-1.6,0.6-2.2c3.6-4,5.8-8,7.1-11l-9.9,4.8c-1.2,0.6-2.7,0.1-3.3-1.2c-0.6-1.2-0.1-2.7,1.2-3.3
		l15.2-7.4c0.8-0.4,1.8-0.3,2.6,0.2c0.8,0.6,1.1,1.5,1,2.4c-0.1,0.3-1.4,7.7-7.9,16l15.1,6.2c1,0.4,1.6,1.5,1.5,2.6
		c-0.1,1.1-0.9,2-2,2.2l-17.4,3.4l8.9,19.6c0.5,1.1,0.2,2.4-0.8,3.1C824.9,703.1,824.4,703.3,823.9,703.3z"/>
	<g>
		<path fill="#626171" d="M822.8,842.8c45-44.9-5.9-141.6-48.2-179.8c-24.7-22.3-67.8-22.3-92.4,0c-18.1,16.4-36.8,36.3-50.8,77.7
			c-18.7,55-14.5,81.3,8.3,100.4c1.5,1.3,3.1,2.4,4.7,3.6c-25.9,4.7-68.3,14.1-58,23.6c11.1,10.2,58.2-4.6,80.4-12.3
			c40.3,14.3,96.7,8.9,134-3.6c11.2,4.2,76.9,28.3,90.3,15.9C903,857.3,845,846.5,822.8,842.8z"/>
		<path fill="#2D2A28" d="M600.1,874.2c-6.9,0-12.3-1.2-15.4-4.1c-2.8-2.5-2.6-5.1-2.2-6.4c0.8-2.6,3-10.4,55.8-20.5
			c-0.1-0.1-0.2-0.2-0.3-0.2c-24.7-20.7-27.3-49.6-9.1-103.1c14.5-42.8,34.2-63.1,51.5-78.7c25.5-23.1,70.3-23.1,95.8,0
			c31.8,28.8,65.4,86.3,66.6,132.6c0.5,19.3-4.6,35.2-15,47.4c9.6,1.7,24,4.4,36.8,7.7c24.9,6.5,29.3,11.3,30.4,14.8
			c0.4,1.3,0.6,3.9-2.2,6.4c-3.1,2.9-8.6,4-15.4,4c-23.2,0-61.9-13.6-76.7-19.2c-35.8,11.8-92.5,17.9-133.9,3.6
			C644.2,866.5,617.5,874.2,600.1,874.2z M728.4,648.7c-16.3,0-32.7,5.4-44.5,16.1c-16.8,15.2-36,35-50.2,76.6
			c-17.6,51.8-15.6,78.3,7.6,97.6c1.4,1.2,2.9,2.3,4.5,3.5l4.9,3.4l-5.9,1.1c-40.7,7.4-56.4,14.3-57.5,18c0,0.1-0.1,0.5,0.8,1.3
			c7.1,6.5,36.2,1.7,77.9-12.8l0.8-0.3l0.8,0.3c40.7,14.4,97.1,8.2,132.4-3.6l0.8-0.3l0.8,0.3c28.3,10.7,59,19.3,76.1,19.3
			c5.5,0,9.5-0.9,11.7-2.9c0.9-0.8,0.8-1.2,0.8-1.3c-1.3-4.5-22.8-12.4-67.7-19.8l-4.8-0.8l3.5-3.4c11.6-11.6,17.3-27.4,16.8-47.2
			c-1.1-45-33.9-100.9-64.9-129C761,654.1,744.7,648.7,728.4,648.7z"/>
	</g>
	<circle fill="#2D2A28" cx="692.6" cy="705.4" r="14.2"/>
	<circle fill="#FFFFFF" cx="692.6" cy="701.1" r="8.8"/>
	<circle fill="#FFFFFF" cx="695.3" cy="714.9" r="2"/>
	<circle fill="#2D2A28" cx="760.3" cy="705.4" r="14.2"/>
	<circle fill="#FFFFFF" cx="760.3" cy="701.1" r="8.8"/>
	<circle fill="#FFFFFF" cx="763.1" cy="714.9" r="2"/>
	<path fill="#2D2A28" d="M713,743c-0.2,0-0.4,0-0.6,0c-8-0.4-13-9-13.2-9.4c-0.7-1.2-0.3-2.7,0.9-3.4c1.2-0.7,2.7-0.3,3.4,0.9
		c0.1,0.1,3.9,6.7,9.2,6.9c3.3,0.1,6.7-2.2,10.1-7.1c0.8-1.1,2.4-1.4,3.5-0.6c1.1,0.8,1.4,2.4,0.6,3.5
		C722.5,739.9,717.9,743,713,743z"/>
	<path fill="#2D2A28" d="M736.7,743c-4.9,0-9.6-3.1-13.9-9.2c-0.8-1.1-0.5-2.7,0.6-3.5c1.1-0.8,2.7-0.5,3.5,0.6
		c3.4,4.9,6.9,7.2,10.1,7.1c5.3-0.2,9.1-6.8,9.2-6.9c0.7-1.2,2.2-1.6,3.4-0.9c1.2,0.7,1.6,2.2,0.9,3.4c-0.2,0.4-5.2,9-13.2,9.4
		C737.1,743,736.9,743,736.7,743z"/>
	<path fill="#2D2A28" d="M800.1,762.3c-0.5,0-1.1-0.2-1.5-0.5c-1.1-0.8-1.3-2.4-0.4-3.5c17.5-22.5,0.1-47.6-0.1-47.9
		c-0.8-1.1-0.5-2.7,0.6-3.5c1.1-0.8,2.7-0.5,3.5,0.6c0.2,0.3,19.6,28.5-0.1,53.8C801.6,762,800.9,762.3,800.1,762.3z"/>
	<path fill="#2D2A28" d="M658.7,762.3c-0.7,0-1.5-0.3-2-1c-19.7-25.4-0.3-53.6-0.1-53.8c0.8-1.1,2.4-1.4,3.5-0.6
		c1.1,0.8,1.4,2.4,0.6,3.5c-0.7,1.1-17.5,25.5-0.1,47.9c0.8,1.1,0.6,2.7-0.4,3.5C659.8,762.1,659.3,762.3,658.7,762.3z"/>
	<g>
		<path fill="#626171" d="M638.8,770.5c-0.8,3.9-1.9,7.6-2.5,11.5"/>
		<path fill="#2D2A28" d="M638.8,770.5c0,0,0.2,0.8,0.2,1.9c0,1.1-0.2,2.6-0.5,4c-0.3,1.4-0.8,2.8-1.3,3.8c-0.4,1-0.9,1.7-0.9,1.7
			s-0.2-0.8-0.2-1.9c-0.1-1.1,0.1-2.6,0.4-4.1c0.3-1.4,0.8-2.8,1.3-3.8C638.4,771.2,638.8,770.5,638.8,770.5z"/>
	</g>
	<g>
		<path fill="#626171" d="M687.3,815.5c0.3,2.6-0.1,5.3-1.5,7.5"/>
		<path fill="#2D2A28" d="M687.3,815.5c0,0,0.4,0.4,0.6,1.2c0.3,0.8,0.4,1.8,0.2,2.9c-0.2,1-0.7,2-1.3,2.6c-0.5,0.6-1.1,0.8-1.1,0.8
			s0-0.2,0-0.4c0-0.2,0-0.6,0.1-0.9c0-0.7,0.2-1.6,0.3-2.5c0.2-0.9,0.4-1.8,0.6-2.5c0.1-0.4,0.2-0.6,0.3-0.9
			C687.3,815.6,687.3,815.5,687.3,815.5z"/>
	</g>
	<g>
		<path fill="#626171" d="M741.3,834.5c0.1,4.4,0.1,10.4-2,14"/>
		<path fill="#2D2A28" d="M741.3,834.5c0,0,0.4,0.9,0.6,2.2c0.3,1.3,0.4,3.2,0.2,5c-0.1,0.9-0.3,1.8-0.5,2.7
			c-0.2,0.8-0.5,1.6-0.9,2.2c-0.3,0.6-0.7,1.1-1,1.4c-0.3,0.3-0.5,0.5-0.5,0.5s0-0.2,0.1-0.6c0.1-0.4,0.1-0.9,0.2-1.6
			c0.1-0.3,0.1-0.7,0.1-1c0-0.4,0.1-0.8,0.1-1.2c0.1-0.8,0.2-1.7,0.3-2.5c0.2-1.7,0.4-3.5,0.6-4.8
			C741,835.4,741.3,834.5,741.3,834.5z"/>
	</g>
	<g>
		<path fill="#626171" d="M780.3,783c0.2,2.5-0.3,5-0.5,7.5"/>
		<path fill="#2D2A28" d="M780.3,783c0,0,0.4,0.4,0.6,1.2c0.3,0.7,0.4,1.7,0.3,2.7c-0.1,1-0.4,1.9-0.7,2.5c-0.3,0.7-0.7,1.1-0.7,1.1
			s-0.3-0.5-0.5-1.2c-0.2-0.7-0.2-1.7-0.2-2.6c0.1-0.9,0.3-1.8,0.6-2.5C780,783.5,780.3,783,780.3,783z"/>
	</g>
	<g>
		<path fill="#626171" d="M815.3,761.5c0.7,2.4,0.5,4.9,0.5,7.5"/>
		<path fill="#2D2A28" d="M815.3,761.5c0,0,0.1,0.1,0.3,0.3c0.2,0.2,0.4,0.4,0.6,0.8c0.4,0.7,0.7,1.7,0.7,2.7c0,1-0.2,1.9-0.4,2.6
			c-0.2,0.7-0.6,1.2-0.6,1.2s-0.3-0.5-0.6-1.2c-0.3-0.7-0.4-1.7-0.4-2.6c0-0.9,0.1-1.8,0.2-2.5c0.1-0.4,0.1-0.6,0.2-0.9
			C815.3,761.6,815.3,761.5,815.3,761.5z"/>
	</g>
	<g>
		<path fill="#626171" d="M736.3,671.5c1.4,1.2,2.4,2.7,3,4.5"/>
		<path fill="#2D2A28" d="M736.3,671.5c0,0,0.5,0,1,0.2c0.6,0.2,1.2,0.7,1.6,1.3c0.4,0.6,0.6,1.4,0.6,2c0,0.6-0.2,1-0.2,1
			s-0.4-0.2-0.8-0.6c-0.4-0.3-0.9-0.8-1.2-1.3c-0.3-0.5-0.6-1.1-0.8-1.6c-0.1-0.3-0.1-0.5-0.2-0.7
			C736.3,671.6,736.3,671.5,736.3,671.5z"/>
	</g>
	<g>
		<path fill="#626171" d="M767.8,670c0.2,2.1,1,4.2,2,6"/>
		<path fill="#2D2A28" d="M767.8,670c0,0,0.4,0.4,0.7,0.9c0.4,0.5,0.7,1.2,0.9,1.9c0.2,0.7,0.4,1.4,0.4,2.1c0,0.6,0,1.1,0,1.1
			s-0.5-0.2-1-0.6c-0.5-0.4-1-1.1-1.3-2c-0.3-0.8-0.3-1.7-0.2-2.3C767.5,670.4,767.8,670,767.8,670z"/>
	</g>
	<g>
		<path fill="#626171" d="M707.8,662.5c-1.9,1.2-3.2,3.1-5,4.5"/>
		<path fill="#2D2A28" d="M707.8,662.5c0,0,0,0.1-0.1,0.3c-0.1,0.2-0.2,0.5-0.4,0.7c-0.3,0.6-0.8,1.2-1.3,1.8
			c-0.6,0.6-1.3,1.1-2,1.3c-0.6,0.3-1.2,0.2-1.2,0.2s0.1-0.5,0.4-1.1c0.3-0.6,0.7-1.3,1.3-1.9c0.6-0.6,1.4-1.1,2-1.3
			C707.3,662.4,707.8,662.5,707.8,662.5z"/>
	</g>
	<g>
		<path fill="#626171" d="M674.3,777c0,1.7,0,3.3,0,5"/>
		<path fill="#2D2A28" d="M674.3,777c0,0,0.3,0.3,0.6,0.8c0.3,0.5,0.4,1.1,0.4,1.7c0,0.6-0.2,1.2-0.4,1.7c-0.2,0.5-0.6,0.8-0.6,0.8
			s-0.3-0.3-0.6-0.8c-0.3-0.5-0.4-1.1-0.4-1.7c0-0.6,0.2-1.2,0.4-1.7C674,777.3,674.3,777,674.3,777z"/>
	</g>
	<g>
		<path fill="#626171" d="M683.5,782.5c0,0,32,32.4,41.7,20.1c9.8-12.2-20.2-34.5-20.2-34.5"/>
		<path fill="#2D2A28" d="M719.1,807.9c-5.9,0-13.9-3.9-23.9-11.7c-7.5-5.8-13.2-11.7-13.5-11.9l3.6-3.5
			c6.3,6.3,24.7,22.7,34.3,22.1c1.6-0.1,2.8-0.7,3.7-1.8c1.2-1.5,1.6-3.2,1.3-5.2c-1.2-9.1-15.6-21.6-21-25.7l3-4
			c0.9,0.6,21.3,16,23,29c0.4,3.4-0.4,6.4-2.4,9c-1.8,2.3-4.3,3.5-7.4,3.7C719.6,807.9,719.3,807.9,719.1,807.9z"/>
	</g>
	<g>
		<path fill="#626171" d="M761.7,768.1c0,0-42.3,18.7-35,32.5c7.3,13.8,39.5-7,39.5-7"/>
		<path fill="#2D2A28" d="M735.9,807.9c-1.5,0-2.9-0.2-4.2-0.5c-3.2-0.8-5.7-2.7-7.2-5.6c-1.3-2.5-1.5-5.3-0.5-8.2
			c4.6-13.3,33.4-26.3,36.7-27.8l2,4.6c-8.3,3.7-30.7,15.3-34,24.8c-0.6,1.6-0.5,3,0.2,4.2c0.8,1.6,2.1,2.6,4,3.1
			c8.7,2.3,26-7.2,32-11l2.7,4.2C766.8,796.3,748.7,807.9,735.9,807.9z"/>
	</g>
	<g>
		<path fill="#2D2A28" d="M683.8,725.3c-0.2,0-0.5-0.1-0.7-0.2c-0.1,0-7.1-3.9-19.5-7.3c-11.4-3.2-29.8-6.6-52.5-5.2
			c-0.8,0-1.5-0.6-1.6-1.4c-0.1-0.8,0.6-1.5,1.4-1.6c44.4-2.8,73.3,12.7,73.6,12.9c0.7,0.4,1,1.3,0.6,2
			C684.9,725.1,684.4,725.3,683.8,725.3z"/>
		<path fill="#2D2A28" d="M608.6,743.8c-0.6,0-1.1-0.3-1.4-0.9c-0.4-0.7,0-1.6,0.7-2c40.2-19.1,72.8-15.4,73.2-15.3
			c0.8,0.1,1.4,0.8,1.3,1.7c-0.1,0.8-0.8,1.4-1.7,1.3c-0.1,0-8.1-0.9-20.8,0.4c-11.8,1.3-30.1,4.9-50.7,14.6
			C609,743.7,608.8,743.8,608.6,743.8z"/>
		<path fill="#2D2A28" d="M770.6,725.3c-0.5,0-1-0.3-1.3-0.8c-0.4-0.7-0.1-1.6,0.6-2c0.3-0.2,29.2-15.7,73.6-12.9
			c0.8,0.1,1.5,0.8,1.4,1.6c-0.1,0.8-0.7,1.5-1.6,1.4c-22.8-1.4-41.2,2-52.6,5.2c-12.3,3.4-19.3,7.2-19.4,7.3
			C771.1,725.3,770.9,725.3,770.6,725.3z"/>
		<path fill="#2D2A28" d="M845.9,743.8c-0.2,0-0.4,0-0.6-0.1c-20.6-9.8-38.9-13.3-50.7-14.6c-12.8-1.4-20.8-0.5-20.8-0.4
			c-0.8,0.1-1.6-0.5-1.7-1.3c-0.1-0.8,0.5-1.6,1.3-1.7c0.3,0,33-3.7,73.2,15.3c0.7,0.4,1.1,1.2,0.7,2
			C847,743.5,846.4,743.8,845.9,743.8z"/>
	</g>
</g>
<g>
	<g>
		<path fill="#7B6D64" d="M1088.8,710.1c0,0-37.2-42.9-25.1-84.1c8.7-29.8,25.2-37.8,36.3-33c25,10.6,29.8,54.6,29.8,54.6"/>
		<path fill="#605951" d="M1086.9,711.8c-0.4-0.4-9.6-11.1-17.5-27.1c-10.5-21.3-13.3-41.8-8.2-59.3c5-17.1,13.3-29.2,23.3-33.9
			c5.5-2.6,11.3-2.9,16.4-0.7c11,4.7,19.7,15.7,25.7,32.8c4.4,12.5,5.6,23.4,5.7,23.9l-5,0.5c0-0.4-5-42.7-28.3-52.6
			c-3.8-1.6-8.1-1.4-12.3,0.6c-8.7,4.1-16,15.1-20.6,30.8c-11.5,39.4,24.3,81.3,24.6,81.8L1086.9,711.8z"/>
	</g>
	<g>
		<path fill="#7B6D64" d="M1236.8,710.1c0,0,37.2-42.9,25.1-84.1c-8.7-29.8-25.2-37.8-36.3-33c-25,10.6-33,55.7-33,55.7"/>
		<path fill="#605951" d="M1238.7,711.8l-3.8-3.3c0.4-0.4,36.2-42.4,24.6-81.8c-4.6-15.8-11.9-26.7-20.6-30.8
			c-4.3-2-8.5-2.2-12.3-0.6c-23.4,9.9-31.4,53.4-31.5,53.8l-4.9-0.9c0.1-0.5,2.1-11.7,7.3-24.4c7.1-17.4,16.2-28.5,27.2-33.2
			c5.1-2.2,10.9-1.9,16.4,0.7c10,4.7,18.3,16.8,23.3,33.9c5.1,17.5,2.3,38-8.2,59.3C1248.3,700.6,1239.1,711.3,1238.7,711.8z"/>
	</g>
	<g>
		<path fill="#F7BEAF" d="M1113.9,663.7c0,0-11.7-10.2-11.9-34.3c-0.2-24-8.3-22.3-14.3-20.2c-5.3,1.8-20.5,17.3-15.3,48.7
			c5.2,31.4,19.2,44.3,19.2,44.3"/>
		<path fill="#605951" d="M1091.5,704.7c-0.6,0-1.2-0.2-1.7-0.7c-0.6-0.5-14.7-13.8-19.9-45.7c-5.4-32.9,10.5-49.2,16.9-51.5
			c2.5-0.9,7.2-2.5,11.2,0.3c4.3,3,6.3,10.1,6.4,22.2c0.2,22.7,11,32.3,11.1,32.4c1,0.9,1.1,2.5,0.2,3.5c-0.9,1-2.5,1.1-3.5,0.2
			c-0.5-0.4-12.5-11.2-12.8-36.1c-0.1-12.6-2.4-16.8-4.3-18.2c-1.6-1.1-3.7-0.7-6.7,0.3c-4.4,1.5-18.5,16.3-13.6,45.9
			c5,30.2,18.2,42.7,18.4,42.8c1,0.9,1.1,2.5,0.2,3.5C1092.9,704.5,1092.2,704.7,1091.5,704.7z"/>
	</g>
	<g>
		<path fill="#F7BEAF" d="M1209.9,666.3c0,0,13.5-12.8,13.7-36.8c0.2-24,8.3-22.3,14.3-20.2c5.3,1.8,20.5,17.3,15.3,48.7
			c-5.2,31.4-21.1,45.6-21.1,45.6"/>
		<path fill="#605951" d="M1232.1,706c-0.7,0-1.4-0.3-1.9-0.8c-0.9-1-0.8-2.6,0.2-3.5c0,0,3.9-3.5,8.3-10.6
			c4.1-6.6,9.4-17.7,12-33.5c4.9-29.7-9.2-44.4-13.6-45.9c-2.9-1-5.1-1.4-6.7-0.3c-1.9,1.3-4.2,5.6-4.3,18.2
			c-0.3,24.8-13.9,38-14.5,38.6c-1,1-2.6,0.9-3.5-0.1c-0.9-1-0.9-2.6,0.1-3.5c0,0,3.2-3.1,6.4-9c2.9-5.4,6.4-14.3,6.5-26.1
			c0.1-12.2,2.2-19.2,6.4-22.2c4-2.8,8.7-1.2,11.2-0.3c6.4,2.2,22.4,18.5,16.9,51.5c-5.3,31.9-21.2,46.4-21.9,47
			C1233.3,705.8,1232.7,706,1232.1,706z"/>
	</g>
	<path fill="#605951" d="M1093.7,681.4c-0.5,0-1-0.2-1.5-0.5c-1-0.7-1.3-2-0.8-3.1l6.3-13.8l-12-2.4c-1.1-0.2-1.9-1.1-2-2.2
		c-0.1-1.1,0.5-2.1,1.5-2.6l10.4-4.3c-4.4-6-5.4-11.2-5.4-11.5c-0.2-0.9,0.2-1.9,1-2.4c0.8-0.6,1.8-0.7,2.6-0.2l11.3,5.5
		c1.2,0.6,1.8,2.1,1.2,3.3s-2.1,1.8-3.3,1.2l-5.6-2.7c1,1.9,2.4,4.1,4.3,6.3c0.5,0.6,0.8,1.4,0.6,2.2c-0.2,0.8-0.7,1.4-1.5,1.7
		l-5.8,2.4l7,1.4c0.8,0.1,1.4,0.6,1.7,1.3c0.4,0.7,0.4,1.5,0.1,2.2l-3.1,6.9c2.1-1.4,4.2-2.5,5.8-2.8c1.4-0.2,2.6,0.7,2.8,2.1
		c0.2,1.4-0.7,2.6-2.1,2.8c-1.8,0.3-7.4,4.6-11.5,8.4C1095,681.1,1094.3,681.4,1093.7,681.4z"/>
	<path fill="#605951" d="M1231.9,681.4c-0.6,0-1.2-0.2-1.7-0.7c-4.1-3.8-9.6-8.1-11.5-8.4c-1.4-0.2-2.3-1.5-2.1-2.8
		c0.2-1.4,1.5-2.3,2.8-2.1c1.6,0.2,3.7,1.4,5.8,2.8l-3.1-6.9c-0.3-0.7-0.3-1.5,0.1-2.2c0.3-0.7,1-1.2,1.7-1.3l7-1.4l-5.8-2.4
		c-0.8-0.3-1.3-1-1.5-1.7c-0.2-0.8,0-1.6,0.6-2.2c2-2.2,3.4-4.4,4.3-6.3l-5.6,2.7c-1.2,0.6-2.7,0.1-3.3-1.2s-0.1-2.7,1.2-3.3
		l11.3-5.5c0.8-0.4,1.8-0.3,2.6,0.2c0.8,0.6,1.1,1.5,1,2.4c0,0.2-1,5.4-5.4,11.5l10.4,4.3c1,0.4,1.6,1.5,1.5,2.6
		c-0.1,1.1-0.9,2-2,2.2l-12,2.4l6.3,13.8c0.5,1.1,0.2,2.4-0.8,3.1C1232.9,681.2,1232.4,681.4,1231.9,681.4z"/>
	<g>
		<path fill="#7B6D64" d="M1270.3,872.4c-14.4-8.7-34.6-11.6-46.1-12.6c25.2-9.7,42.4-27.4,46.4-55.8c8.7-61-21.5-128.1-63.8-166.3
			c-24.7-22.3-67.8-22.3-92.4,0c-18.1,16.4-36.6,36.3-50.8,77.7c-20.9,61-18.2,125.9,35.8,146c-10.9,1.7-23.9,5-34,11.1
			c-21.3,12.8,12.1,16.8,36.7,5.5c10.1-4.6,17.6-8.3,22.9-10.9c30,3.5,58.3,3.3,81.9-2c5.3,2.7,13.9,6.9,26.8,12.9
			C1258.2,889.3,1291.5,885.3,1270.3,872.4z"/>
		<path fill="#605951" d="M1263.4,887.1c-9.3,0-21-2.4-30.9-6.9c-12.5-5.8-21-9.9-26.1-12.5c-22.3,4.9-49.5,5.5-81.1,1.9
			c-6.4,3.2-13.8,6.7-22.3,10.6c-18.2,8.4-42.5,9.3-46.5,1.8c-1.9-3.7,0.6-7.6,7.4-11.7c7.1-4.3,16-7.6,26.8-9.9
			c-50.1-24.7-48.6-90.5-29.6-145.8c14.7-43,34.3-63.2,51.5-78.7c25.5-23.1,70.3-23.1,95.8,0c21.5,19.5,39.9,46.3,51.6,75.6
			c12.6,31.4,17.1,63.6,12.9,93c-3.5,24.6-16.7,42.8-39.4,54c11.4,1.6,26.4,5,37.9,11.9l0,0c6.9,4.1,9.3,8.1,7.4,11.7
			C1277.2,885.5,1271.1,887.1,1263.4,887.1z M1207.1,862.4l0.8,0.4c4.9,2.5,13.5,6.8,26.7,12.8c18.5,8.5,38.3,7.2,40,4.1
			c0.1-0.2-0.4-2-5.6-5.1c-14.1-8.5-34.3-11.3-45.1-12.2l-10.8-0.9l10.1-3.9c26.1-10.1,41.2-28.2,44.9-53.8
			c4.1-28.5-0.3-59.8-12.6-90.4c-11.5-28.6-29.4-54.7-50.3-73.7c-23.7-21.5-65.3-21.5-89.1,0c-16.7,15.1-35.8,34.8-50.2,76.6
			c-19.1,55.7-20.2,122.5,34.3,142.8l8.9,3.3l-9.4,1.5c-13.8,2.2-24.9,5.8-33.1,10.8c-5.1,3.1-5.7,4.9-5.6,5.1
			c1.7,3.2,21.5,4.4,40-4.1c8.7-4,16.4-7.6,22.8-10.9l0.7-0.3l0.7,0.1c31.7,3.7,59,3,81-1.9L1207.1,862.4z"/>
	</g>
	<circle fill="#605951" cx="1124.8" cy="680.1" r="14.2"/>
	<circle fill="#FFFFFF" cx="1124.8" cy="675.8" r="8.8"/>
	<circle fill="#FFFFFF" cx="1114.4" cy="687.5" r="3.8"/>
	<circle fill="#FFFFFF" cx="1127.6" cy="689.6" r="2"/>
	<circle fill="#605951" cx="1192.6" cy="680.1" r="14.2"/>
	<circle fill="#FFFFFF" cx="1192.6" cy="675.8" r="8.8"/>
	<circle fill="#FFFFFF" cx="1182.2" cy="687.5" r="3.8"/>
	<circle fill="#FFFFFF" cx="1195.3" cy="689.6" r="2"/>
	<path fill="#605951" d="M1145.2,717.7c-0.2,0-0.4,0-0.6,0c-8-0.4-13-9-13.2-9.4c-0.7-1.2-0.3-2.7,0.9-3.4c1.2-0.7,2.7-0.3,3.4,0.9
		c0.1,0.1,3.9,6.6,9.2,6.9c3.2,0.1,6.7-2.2,10.1-7.1c0.8-1.1,2.4-1.4,3.5-0.6c1.1,0.8,1.4,2.4,0.6,3.5
		C1154.8,714.6,1150.1,717.7,1145.2,717.7z"/>
	<path fill="#605951" d="M1168.9,717.7c-4.9,0-9.6-3.1-13.9-9.2c-0.8-1.1-0.5-2.7,0.6-3.5c1.1-0.8,2.7-0.5,3.5,0.6
		c3.4,4.9,6.8,7.2,10.1,7.1c5.3-0.2,9.1-6.8,9.2-6.9c0.7-1.2,2.2-1.6,3.4-0.9c1.2,0.7,1.6,2.2,0.9,3.4c-0.2,0.4-5.2,9-13.2,9.4
		C1169.3,717.7,1169.1,717.7,1168.9,717.7z"/>
	<path fill="#605951" d="M1232.4,737c-0.5,0-1.1-0.2-1.5-0.5c-1.1-0.8-1.3-2.4-0.4-3.5c17.5-22.5,0.1-47.6-0.1-47.9
		c-0.8-1.1-0.5-2.7,0.6-3.5c1.1-0.8,2.7-0.5,3.5,0.6c0.2,0.3,19.6,28.5-0.1,53.8C1233.9,736.7,1233.1,737,1232.4,737z"/>
	<path fill="#605951" d="M1091,737c-0.7,0-1.5-0.3-2-1c-19.7-25.4-0.3-53.6-0.1-53.8c0.8-1.1,2.4-1.4,3.5-0.6
		c1.1,0.8,1.4,2.4,0.6,3.5c-0.7,1.1-17.5,25.5-0.1,47.9c0.8,1.1,0.6,2.7-0.4,3.5C1092,736.8,1091.5,737,1091,737z"/>
	<path fill="#605951" d="M1071.1,745.2c0,0,0.2,0.8,0.2,1.9c0,1.1-0.2,2.6-0.5,4c-0.3,1.4-0.8,2.8-1.3,3.8c-0.4,1-0.9,1.7-0.9,1.7
		s-0.2-0.8-0.2-1.9c-0.1-1.1,0.1-2.6,0.4-4.1c0.3-1.4,0.8-2.8,1.3-3.8C1070.6,745.9,1071.1,745.2,1071.1,745.2z"/>
	<path fill="#605951" d="M1089.1,818.7c0,0,0.1,0.2,0.2,0.6c0.1,0.4,0.2,0.9,0.4,1.6c0.3,1.3,0.9,2.9,1.4,4.6
		c0.5,1.7,1.1,3.4,1.3,4.8c0.3,1.4,0.2,2.3,0.2,2.3s-0.6-0.7-1.3-1.9c-0.7-1.2-1.6-2.8-2.1-4.6c-0.3-0.9-0.5-1.8-0.6-2.7
		c-0.1-0.9-0.1-1.7,0-2.4c0-0.4,0.1-0.7,0.2-1c0.1-0.3,0.1-0.5,0.2-0.7C1089,818.9,1089.1,818.7,1089.1,818.7z"/>
	<path fill="#605951" d="M1119.6,790.2c0,0,0.4,0.4,0.6,1.2c0.3,0.8,0.4,1.8,0.2,2.9c-0.2,1-0.7,2-1.3,2.6c-0.5,0.6-1.1,0.8-1.1,0.8
		s0-0.2,0-0.4c0-0.2,0-0.6,0.1-0.9c0-0.7,0.2-1.6,0.3-2.5c0.2-0.9,0.4-1.8,0.6-2.5c0.1-0.4,0.2-0.6,0.3-0.9
		C1119.5,790.4,1119.6,790.2,1119.6,790.2z"/>
	<path fill="#605951" d="M1173.6,809.2c0,0,0.4,0.9,0.6,2.2c0.3,1.3,0.4,3.2,0.2,5c-0.1,0.9-0.3,1.8-0.5,2.7
		c-0.2,0.8-0.5,1.6-0.9,2.2c-0.3,0.6-0.7,1.1-1,1.4c-0.3,0.3-0.5,0.5-0.5,0.5s0-0.2,0.1-0.6c0.1-0.4,0.1-0.9,0.2-1.6
		c0.1-0.3,0.1-0.7,0.1-1c0-0.4,0.1-0.8,0.1-1.2c0.1-0.8,0.2-1.7,0.3-2.5c0.2-1.7,0.4-3.5,0.6-4.8
		C1173.3,810.1,1173.6,809.2,1173.6,809.2z"/>
	<path fill="#605951" d="M1222.8,767.8c0,0,0.4,0.4,0.6,1.2c0.3,0.7,0.4,1.7,0.3,2.7c-0.1,1-0.4,1.9-0.7,2.5
		c-0.3,0.7-0.7,1.1-0.7,1.1s-0.3-0.5-0.5-1.2c-0.2-0.7-0.2-1.7-0.2-2.6c0.1-0.9,0.3-1.8,0.6-2.5
		C1222.5,768.3,1222.8,767.8,1222.8,767.8z"/>
	<path fill="#605951" d="M1247.6,736.2c0,0,0.1,0.1,0.3,0.3c0.2,0.2,0.4,0.4,0.6,0.8c0.4,0.7,0.7,1.7,0.7,2.7c0,1-0.2,1.9-0.4,2.6
		c-0.2,0.7-0.6,1.2-0.6,1.2s-0.3-0.5-0.6-1.2c-0.3-0.7-0.4-1.7-0.4-2.6c0-0.9,0.1-1.8,0.2-2.5c0.1-0.4,0.1-0.6,0.2-0.9
		C1247.5,736.4,1247.6,736.2,1247.6,736.2z"/>
	<path fill="#605951" d="M1168.6,646.2c0,0,0.5,0,1,0.2c0.6,0.2,1.2,0.7,1.6,1.3c0.4,0.6,0.6,1.4,0.6,2c0,0.6-0.2,1-0.2,1
		s-0.4-0.2-0.8-0.6c-0.4-0.3-0.9-0.8-1.2-1.3c-0.3-0.5-0.6-1.1-0.8-1.6c-0.1-0.3-0.1-0.5-0.2-0.7
		C1168.6,646.3,1168.6,646.2,1168.6,646.2z"/>
	<path fill="#605951" d="M1200.1,644.7c0,0,0.4,0.4,0.7,0.9c0.4,0.5,0.7,1.2,0.9,1.9c0.2,0.7,0.4,1.4,0.4,2.1c0,0.6,0,1.1,0,1.1
		s-0.5-0.2-1-0.6c-0.5-0.4-1-1.1-1.3-2c-0.3-0.8-0.3-1.7-0.2-2.3C1199.8,645.1,1200.1,644.7,1200.1,644.7z"/>
	<path fill="#605951" d="M1140.1,637.2c0,0,0,0.1-0.1,0.3c-0.1,0.2-0.2,0.5-0.4,0.7c-0.3,0.6-0.8,1.2-1.3,1.8
		c-0.6,0.6-1.3,1.1-2,1.3c-0.6,0.3-1.2,0.2-1.2,0.2s0.1-0.5,0.4-1.1c0.3-0.6,0.7-1.3,1.3-1.9c0.6-0.6,1.4-1.1,2-1.3
		C1139.5,637.2,1140.1,637.2,1140.1,637.2z"/>
	<path fill="#605951" d="M1106.6,751.7c0,0,0.3,0.3,0.6,0.8c0.3,0.5,0.4,1.1,0.4,1.7c0,0.6-0.2,1.2-0.4,1.7
		c-0.2,0.5-0.6,0.8-0.6,0.8s-0.3-0.3-0.6-0.8c-0.3-0.5-0.4-1.1-0.4-1.7c0-0.6,0.2-1.2,0.4-1.7C1106.2,752,1106.6,751.7,1106.6,751.7
		z"/>
	<path fill="#605951" d="M1241.1,820.2c0,0,0,0.9-0.3,2.3c-0.3,1.4-1,3.1-2,4.6c-1,1.6-2.2,2.9-3.3,3.8c-1.1,0.9-1.9,1.3-1.9,1.3
		s0.1-0.2,0.3-0.6c0.2-0.4,0.4-0.9,0.8-1.4c0.7-1.2,1.6-2.6,2.5-4.1c0.9-1.5,1.8-2.9,2.6-4c0.4-0.6,0.7-1,0.9-1.3
		C1240.9,820.4,1241.1,820.2,1241.1,820.2z"/>
	<path fill="#605951" d="M1188.1,851.2c0,0,0,0.6-0.3,1.3c-0.3,0.7-0.8,1.5-1.5,2.2c-0.7,0.7-1.6,1.2-2.3,1.3
		c-0.7,0.2-1.3,0.2-1.3,0.2s0.2-0.5,0.6-1.1c0.4-0.6,1-1.3,1.6-1.9c0.7-0.6,1.4-1.1,2-1.5C1187.5,851.4,1188.1,851.2,1188.1,851.2z"
		/>
	<g>
		<path fill="#605951" d="M1112.4,716.5c-0.2,0-0.5-0.1-0.7-0.2c-0.1,0-7.1-3.9-19.5-7.3c-11.4-3.2-29.8-6.6-52.5-5.2
			c-0.9,0-1.5-0.6-1.6-1.4c-0.1-0.8,0.6-1.5,1.4-1.6c44.4-2.8,73.3,12.7,73.6,12.9c0.7,0.4,1,1.3,0.6,2
			C1113.4,716.3,1112.9,716.5,1112.4,716.5z"/>
		<path fill="#605951" d="M1037.1,735c-0.6,0-1.1-0.3-1.4-0.9c-0.4-0.7,0-1.6,0.7-2c40.2-19.1,72.8-15.4,73.2-15.3
			c0.8,0.1,1.4,0.8,1.3,1.7c-0.1,0.8-0.8,1.4-1.7,1.3c-0.1,0-8.1-0.9-20.8,0.4c-11.8,1.3-30.1,4.9-50.7,14.6
			C1037.5,734.9,1037.3,735,1037.1,735z"/>
		<path fill="#605951" d="M1199.1,716.5c-0.5,0-1-0.3-1.3-0.8c-0.4-0.7-0.1-1.6,0.6-2c0.3-0.2,29.2-15.7,73.6-12.9
			c0.8,0.1,1.5,0.8,1.4,1.6c-0.1,0.8-0.7,1.4-1.6,1.4c-22.7-1.4-41.1,2-52.5,5.2c-12.4,3.4-19.4,7.3-19.5,7.3
			C1199.6,716.5,1199.4,716.5,1199.1,716.5z"/>
		<path fill="#605951" d="M1274.4,735c-0.2,0-0.4,0-0.6-0.1c-20.6-9.8-38.9-13.3-50.7-14.6c-12.8-1.4-20.8-0.5-20.8-0.4
			c-0.8,0.1-1.6-0.5-1.7-1.3c-0.1-0.8,0.5-1.6,1.3-1.7c0.3,0,32.9-3.7,73.2,15.3c0.7,0.4,1.1,1.2,0.7,2
			C1275.5,734.7,1274.9,735,1274.4,735z"/>
	</g>
	<path fill="#FFFFFF" d="M1163.9,720c-28.4,0-51.5,41.5-51.5,92.5c0,19.1,3.2,37.3,9.3,52.9c0.7-0.4,1.4-0.7,2-1l0.7-0.3l0.7,0.1
		c31.7,3.7,59,3,81-1.9l0.9-0.2l0.2,0.1c5.3-14.8,8.1-31.9,8.1-49.6C1215.4,761.5,1192.3,720,1163.9,720z"/>
	<g>
		<path fill="#7B6D64" d="M1216.6,731.5c0,0-44.3-13.3-47.8,1.9c-3.4,15.3,34.6,20.4,34.6,20.4"/>
		<path fill="#605951" d="M1203.1,756.3c-1.1-0.1-27.4-3.8-34.9-14.5c-1.9-2.8-2.5-5.7-1.8-8.9c0.6-2.8,2.3-5,5-6.6
			c5.3-3.1,14.7-3.5,28-1.3c9.6,1.6,17.6,4,18,4.1l-1.4,4.8c-8.7-2.6-33.3-8.3-42-3.3c-1.5,0.9-2.3,1.9-2.6,3.3
			c-0.4,1.7,0,3.4,1,4.9c5.2,7.4,24.5,11.5,31.5,12.4L1203.1,756.3z"/>
	</g>
	<g>
		<path fill="#7B6D64" d="M1106.5,746.5c0,0,44.4,10.1,46-5.5c1.6-15.6-35.6-18.2-35.6-18.2"/>
		<path fill="#605951" d="M1133.1,752.2c-2.9,0-6-0.2-9.4-0.5c-9.4-0.9-17.4-2.7-17.8-2.8l1.1-4.9c8.7,2,32.9,5.8,40.8,0.2
			c1.3-1,2-2.1,2.2-3.5c0.2-1.9-0.4-3.5-1.7-5.1c-5.9-7-24.8-9.8-31.6-10.3l0.4-5c1.1,0.1,26.5,2,35,12.1c2.2,2.6,3.2,5.6,2.8,8.9
			c-0.3,2.9-1.8,5.3-4.2,7.1C1147.2,750.9,1141.3,752.2,1133.1,752.2z"/>
	</g>
</g>
</svg>
